<svg version="1.1" id="Layer_1" xmlns="http://www.w3.org/2000/svg" xmlns:xlink="http://www.w3.org/1999/xlink" x="0px" y="0px"
	 width="100%" viewBox="0 0 1280 1280" enable-background="new 0 0 1280 1280" xml:space="preserve">
<path fill="#000000" opacity="1.000000" stroke="none" 
	d="
M1281.000000,453.000000 
	C1281.000000,729.333313 1281.000000,1005.166565 1281.000000,1281.000000 
	C854.333435,1281.000000 427.666931,1281.000000 1.000283,1281.000000 
	C1.000189,854.333557 1.000189,427.667084 1.000094,1.000455 
	C427.666382,1.000303 854.332764,1.000303 1280.999512,1.000152 
	C1281.000000,151.500000 1281.000000,302.000000 1281.000000,453.000000 
M667.767578,64.215080 
	C666.192383,64.188667 664.617126,64.162247 662.187073,63.977203 
	C660.452942,64.029526 658.718750,64.081856 656.055725,64.017120 
	C645.709045,64.056137 635.362366,64.095161 624.161743,63.979698 
	C622.430481,64.031700 620.699280,64.083694 618.176086,64.021164 
	C616.732849,64.321556 615.289612,64.621948 612.931335,64.955261 
	C608.271606,64.968201 603.578125,64.625717 598.958679,65.063759 
	C587.248596,66.174171 575.551575,67.480232 563.887939,69.003784 
	C554.515442,70.228073 544.765259,69.390694 535.037048,73.965736 
	C528.598694,74.861961 522.048950,75.283417 515.746948,76.761070 
	C505.200104,79.234016 494.814362,82.392029 484.355011,85.240402 
	C477.348358,87.148514 470.195526,88.626839 463.351044,90.998665 
	C452.798340,94.655533 442.461639,98.933723 432.018463,102.909378 
	C424.273682,105.857765 416.319885,108.336029 408.791870,111.755974 
	C398.074707,116.624748 387.556091,121.963531 377.146027,127.467270 
	C363.198425,134.841278 349.422119,142.540527 335.627106,150.198822 
	C334.793274,150.661728 334.441864,151.993607 333.939301,152.938812 
	C333.939301,152.938812 333.924438,152.864853 333.180115,152.982864 
	C330.729401,154.191727 328.137817,155.181839 325.855164,156.651718 
	C319.719086,160.603043 313.584076,164.580948 307.702911,168.894897 
	C303.545135,171.944702 299.802094,175.559875 295.948181,178.943695 
	C295.948181,178.943695 295.926361,178.869675 295.195496,178.976807 
	C289.421875,183.625671 283.648224,188.274521 277.948700,192.944550 
	C277.948700,192.944550 277.926971,192.870575 277.203705,192.976654 
	C270.751068,198.634125 264.298401,204.291580 257.374512,210.030243 
	C257.061615,210.207886 256.918701,210.476089 256.260712,210.718094 
	C255.385147,210.861954 254.128525,210.688126 253.698715,211.203629 
	C251.629974,213.684967 249.784271,216.352264 247.325577,219.142593 
	C246.866486,219.709885 246.407410,220.277161 245.254196,220.985397 
	C242.092377,223.531998 238.930557,226.078598 235.476196,228.572937 
	C235.476196,228.572937 235.381470,228.854599 234.803558,229.137039 
	C233.847916,230.383652 232.892288,231.630264 231.326523,233.187927 
	C227.478043,237.351273 223.632736,241.517578 219.777603,245.674744 
	C219.211624,246.285065 218.596313,246.849426 218.007950,247.439163 
	C212.944595,252.514343 207.849411,257.558716 202.861816,262.707306 
	C202.252975,263.335785 202.311203,264.566589 201.899887,265.442963 
	C201.506348,266.281494 201.027710,267.150604 200.371307,267.782898 
	C197.617508,270.435608 194.706253,272.928009 192.008347,275.634308 
	C190.515106,277.132202 189.160248,278.831787 188.046127,280.628418 
	C186.490036,283.137756 185.534637,286.071655 183.736542,288.364655 
	C181.825012,290.802277 178.864578,292.428375 177.005127,294.893768 
	C172.432281,300.956848 167.911209,307.103027 163.935333,313.564056 
	C151.502731,333.767700 139.136597,354.018127 127.154625,374.490356 
	C122.258881,382.855194 118.232300,391.751190 114.160896,400.567444 
	C111.745621,405.797485 110.112778,411.383209 107.944954,416.734833 
	C106.064438,421.377106 102.756546,425.771484 102.172523,430.532196 
	C101.268700,437.899841 97.292267,444.098877 95.174141,450.880493 
	C93.312836,456.839905 92.397804,463.800781 88.153961,469.271515 
	C86.283409,471.682922 85.746170,475.243896 84.987732,478.376007 
	C83.805321,483.258972 82.944771,488.220062 81.957520,493.150024 
	C79.947037,503.189636 78.003662,513.243164 75.916595,523.266846 
	C74.323532,530.917908 72.226166,538.478088 70.957375,546.178284 
	C69.840797,552.954773 69.554260,559.868652 68.915031,566.723083 
	C67.590797,580.922913 66.283180,595.124329 64.948372,609.323181 
	C64.764839,611.275391 64.465111,613.216736 64.033165,615.845398 
	C64.058151,616.552856 64.083138,617.260376 63.976868,618.825195 
	C64.028763,620.555115 64.080658,622.285034 64.014381,624.943848 
	C64.054047,635.957458 64.093712,646.971008 63.975323,658.815796 
	C64.028412,660.220886 64.081497,661.626038 64.010269,663.795227 
	C64.069771,664.814026 64.129272,665.832825 64.359863,667.687500 
	C64.558205,668.636963 64.887810,669.580017 64.934273,670.536804 
	C65.335152,678.791687 65.357162,687.080078 66.133789,695.297729 
	C67.085045,705.363342 68.617332,715.375549 69.969238,725.401306 
	C71.189659,734.452087 72.281311,743.529480 73.866364,752.518188 
	C74.767342,757.627380 77.211845,762.505432 77.799606,767.621094 
	C79.453331,782.014709 83.382439,795.784973 87.943840,809.439270 
	C88.766754,811.902649 89.299812,814.461670 90.020210,816.961182 
	C90.198311,817.579102 90.648514,818.114136 90.867531,818.725342 
	C94.215591,828.068604 97.459373,837.450317 100.909576,846.755554 
	C103.398262,853.467529 106.197128,860.063965 108.780418,866.741760 
	C110.745186,871.820740 112.139153,877.172729 114.571373,882.008728 
	C121.460587,895.706726 128.553574,909.311646 135.947922,922.743164 
	C142.048172,933.823914 148.405807,944.787598 155.190781,955.458923 
	C160.266739,963.442261 167.131943,970.398376 171.434235,978.724487 
	C174.322876,984.314697 180.015564,987.469910 182.013306,993.415588 
	C182.048447,993.520203 183.275986,993.224182 184.144012,993.742371 
	C183.229752,997.768921 186.624435,997.957764 188.948029,999.043823 
	C188.948029,999.043823 188.875885,999.063171 188.738251,999.752136 
	C188.984924,1000.770752 188.911850,1002.088562 189.535187,1002.754639 
	C191.883316,1005.263855 194.737381,1007.336304 196.876160,1009.995178 
	C199.458145,1013.205261 201.215454,1017.088562 203.856461,1020.238831 
	C207.300598,1024.347046 211.234558,1028.048706 215.012253,1031.871338 
	C216.815674,1033.696289 218.853882,1035.296021 220.591782,1037.177124 
	C223.303543,1040.112183 225.850342,1043.199707 228.717102,1046.340698 
	C228.717102,1046.340698 228.849838,1046.098145 228.962112,1046.818359 
	C231.103165,1048.921509 233.244232,1051.024658 235.465042,1053.419312 
	C235.465042,1053.419312 235.765137,1053.383423 236.037491,1053.985107 
	C239.341141,1056.375366 242.644791,1058.765503 246.079773,1061.706543 
	C246.672974,1062.153198 247.266174,1062.599731 248.114471,1063.693848 
	C249.912170,1065.981689 251.574905,1068.399658 253.584869,1070.482666 
	C254.238785,1071.160400 255.799774,1070.962646 257.032745,1071.635376 
	C257.217682,1071.942505 257.488708,1072.081055 257.995026,1072.762695 
	C262.744843,1077.088989 267.423370,1081.497803 272.284210,1085.695557 
	C273.927979,1087.115112 276.033142,1088.000488 277.949158,1089.055908 
	C277.949158,1089.055908 277.875000,1089.076904 278.127991,1089.723389 
	C284.060944,1094.192505 289.993927,1098.661621 295.948547,1103.056641 
	C295.948547,1103.056641 295.874268,1103.077515 296.130615,1103.738403 
	C296.868652,1104.515503 297.469666,1105.548584 298.366699,1106.028687 
	C304.697052,1109.417114 309.132996,1115.324707 315.998901,1118.247192 
	C322.365784,1120.957153 327.979706,1125.436035 333.939484,1129.062134 
	C333.939484,1129.062134 333.866150,1129.078857 333.993408,1129.806519 
	C337.978241,1132.539307 341.755646,1135.656616 345.984314,1137.937256 
	C363.062469,1147.147827 380.126282,1156.410034 397.507050,1165.024292 
	C406.923553,1169.691284 416.968475,1173.089966 426.728638,1177.063965 
	C436.207733,1180.923584 445.582642,1185.071655 455.202118,1188.541748 
	C460.930725,1190.608276 467.106018,1191.399902 472.965729,1193.149048 
	C479.955841,1195.235718 486.714417,1198.163818 493.770477,1199.947266 
	C503.316437,1202.359985 513.061584,1203.976196 522.699402,1206.036499 
	C530.778015,1207.763306 538.789124,1209.826782 546.900391,1211.372437 
	C551.524292,1212.253540 556.289062,1212.395752 561.657471,1213.019165 
	C562.108154,1212.972290 562.558838,1212.925293 563.786865,1212.996094 
	C565.521667,1213.292969 567.256470,1213.589844 569.660339,1214.020874 
	C570.110168,1213.972290 570.559998,1213.923584 571.873596,1213.994141 
	C575.610657,1214.334229 579.353516,1214.620605 583.083313,1215.027344 
	C588.391357,1215.606323 593.689819,1216.273560 599.790771,1217.026489 
	C600.863647,1216.977783 601.936462,1216.928955 603.912231,1217.000366 
	C607.233337,1217.026489 610.554504,1217.052612 614.230408,1217.785889 
	C615.805786,1217.812012 617.381104,1217.838135 619.811523,1218.022705 
	C621.546143,1217.970459 623.280762,1217.918091 625.944275,1217.982910 
	C636.291016,1217.944580 646.637817,1217.906372 657.838867,1218.021484 
	C659.570435,1217.969116 661.302002,1217.916748 663.824341,1217.978516 
	C665.258057,1217.678467 666.691711,1217.378540 669.024048,1217.019165 
	C672.346252,1216.973022 675.668396,1216.926880 679.785706,1217.024170 
	C680.859619,1216.984009 681.933533,1216.943848 683.828979,1216.724731 
	C692.882812,1215.775024 701.936584,1214.825317 711.657288,1214.018799 
	C712.107666,1213.975098 712.557983,1213.931274 713.769165,1213.748291 
	C715.509583,1213.458496 717.250061,1213.168701 719.658997,1213.020020 
	C720.109070,1212.970581 720.559204,1212.921021 721.823608,1212.666748 
	C724.576538,1212.443970 727.333130,1212.259155 730.081360,1211.988647 
	C733.499207,1211.652466 736.966797,1211.515259 740.312378,1210.813110 
	C747.453308,1209.314697 754.504395,1207.389404 761.641907,1205.872681 
	C765.743591,1205.001099 770.040771,1204.957520 774.076477,1203.887085 
	C781.901550,1201.811768 789.575623,1199.174316 797.366516,1196.960815 
	C803.266418,1195.284790 809.383118,1194.292969 815.170166,1192.314331 
	C827.730469,1188.020264 840.167053,1183.358154 852.602600,1178.708374 
	C858.961304,1176.330933 865.263794,1173.783203 871.492859,1171.084229 
	C879.845520,1167.464844 888.156006,1163.737305 896.374878,1159.825562 
	C899.813965,1158.188965 902.900635,1155.827393 906.273560,1154.032349 
	C911.001404,1151.516357 915.991516,1149.469116 920.608215,1146.773926 
	C927.552429,1142.719971 934.217224,1138.190308 941.100525,1134.027954 
	C947.379211,1130.231323 953.907410,1126.838501 960.102417,1122.915161 
	C964.248657,1120.289307 968.039795,1117.092407 971.925842,1114.068726 
	C975.704346,1111.128662 979.401184,1108.083496 983.058838,1105.066040 
	C983.058838,1105.066040 983.079285,1105.140503 983.726013,1105.018677 
	C984.526367,1104.371826 985.326660,1103.724854 986.052673,1103.057007 
	C986.052673,1103.057007 986.074341,1103.131104 986.805176,1103.024414 
	C992.578674,1098.375366 998.352234,1093.726318 1004.051392,1089.055786 
	C1004.051392,1089.055786 1004.073486,1089.130005 1004.796387,1089.022949 
	C1011.248962,1083.365723 1017.701477,1077.708374 1024.624268,1071.967407 
	C1024.935791,1071.789429 1025.078979,1071.521484 1025.739746,1071.283936 
	C1026.613647,1071.133911 1027.864136,1071.298584 1028.297363,1070.780273 
	C1030.366821,1068.303955 1032.214722,1065.642456 1034.674683,1062.857300 
	C1035.133789,1062.290161 1035.592896,1061.723022 1036.777466,1061.013672 
	C1039.930176,1058.470947 1043.082764,1055.928345 1046.438721,1053.443237 
	C1046.438721,1053.443237 1046.533813,1053.254517 1047.037964,1053.109375 
	C1047.589111,1052.415894 1048.140259,1051.722534 1049.092163,1050.445435 
	C1052.418091,1047.300293 1055.853149,1044.261353 1059.040405,1040.981567 
	C1062.464966,1037.457520 1065.630127,1033.682861 1068.965698,1030.070312 
	C1070.062744,1028.881958 1071.417114,1027.930908 1072.514404,1026.742554 
	C1074.329590,1024.776978 1076.091675,1022.754944 1077.757080,1020.661865 
	C1078.646484,1019.544006 1079.300049,1018.235840 1080.034668,1016.998413 
	C1080.587036,1016.067993 1080.920410,1014.932617 1081.660889,1014.202271 
	C1084.378174,1011.521423 1087.300415,1009.046936 1089.992798,1006.342712 
	C1091.483154,1004.845825 1092.839844,1003.152100 1093.953125,1001.358643 
	C1095.510010,998.850525 1096.463013,995.915527 1098.258789,993.620605 
	C1100.559570,990.680176 1103.703125,988.400757 1106.014771,985.467102 
	C1110.113647,980.265137 1113.974487,974.864075 1117.732544,969.406982 
	C1131.565552,949.319824 1144.138428,928.474426 1155.136963,906.692871 
	C1159.081177,898.881775 1163.333374,891.210449 1166.918457,883.238586 
	C1170.358887,875.588257 1173.171021,867.651733 1176.162231,859.804077 
	C1180.500854,848.421875 1184.527588,836.914062 1189.156616,825.652710 
	C1190.903320,821.403320 1190.522583,816.564575 1193.825439,812.656860 
	C1195.762817,810.364685 1196.255127,806.721252 1197.013184,803.592529 
	C1198.195557,798.711792 1199.057617,793.753113 1200.044800,788.825378 
	C1202.054932,778.793274 1203.993042,768.746277 1206.085327,758.731384 
	C1207.648682,751.247375 1209.745728,743.859619 1210.979126,736.326477 
	C1212.114868,729.389160 1212.426758,722.316101 1213.082397,715.301086 
	C1214.409546,701.098633 1215.714966,686.894226 1217.052734,672.692810 
	C1217.236328,670.742432 1217.553833,668.804626 1217.991089,666.116943 
	C1217.949219,665.092224 1217.907349,664.067505 1218.019775,662.208984 
	C1217.968750,660.800964 1217.917725,659.393005 1217.984619,657.056152 
	C1217.946655,646.375732 1217.908569,635.695374 1218.023926,624.160950 
	C1217.971191,622.429871 1217.918335,620.698730 1217.989868,618.203979 
	C1217.930298,617.185486 1217.870850,616.167053 1217.640259,614.312622 
	C1217.441528,613.197021 1217.131958,612.088379 1217.061035,610.964661 
	C1216.354370,599.786438 1216.149048,588.553223 1214.888306,577.439209 
	C1213.419434,564.488708 1211.110596,551.630066 1209.028198,538.753845 
	C1207.390869,528.629944 1205.875488,518.468384 1203.712769,508.451538 
	C1200.360229,492.922546 1196.607544,477.451019 1190.962646,462.571869 
	C1187.975464,454.698242 1185.844604,446.565674 1182.251587,438.834045 
	C1177.725952,429.096130 1174.959106,418.555420 1171.045654,408.512146 
	C1169.169434,403.696747 1166.341187,399.258453 1164.049072,394.597748 
	C1157.595459,381.475281 1151.592163,368.112366 1144.651367,355.254486 
	C1139.023926,344.829681 1132.516724,334.853180 1125.981567,324.953796 
	C1121.183716,317.685974 1114.832275,311.325134 1110.825195,303.692810 
	C1107.843750,298.014069 1102.220947,294.570831 1099.987549,288.586365 
	C1099.941284,288.462433 1098.723755,288.775696 1097.854980,288.256927 
	C1098.759888,284.239105 1095.382324,284.035400 1093.051636,282.956024 
	C1093.051636,282.956024 1093.123779,282.936707 1093.261841,282.247864 
	C1093.497803,281.833557 1094.024170,281.149170 1093.927002,281.044739 
	C1091.693604,278.643585 1089.360718,276.335175 1087.120605,273.940033 
	C1086.310913,273.074341 1085.711670,272.014771 1084.983154,271.069305 
	C1084.200439,270.053436 1083.390015,269.058044 1082.570435,268.071472 
	C1081.729736,267.059601 1080.833862,266.092560 1080.015869,265.063263 
	C1078.959473,263.733795 1077.988159,262.336304 1076.921997,261.015015 
	C1075.629761,259.413544 1074.325073,257.816711 1072.935913,256.300049 
	C1071.548706,254.785492 1070.061401,253.361679 1068.598999,251.917343 
	C1066.203979,249.552032 1063.701782,247.287689 1061.413696,244.823868 
	C1058.693604,241.894928 1056.151978,238.800232 1053.282959,235.659225 
	C1053.282959,235.659225 1053.150146,235.901871 1053.037842,235.181595 
	C1050.896851,233.078461 1048.755737,230.975311 1046.530396,228.581146 
	C1046.530396,228.581146 1046.230225,228.622421 1045.947632,228.019897 
	C1042.648926,225.628021 1039.350220,223.236130 1035.920044,220.293335 
	C1035.326782,219.846695 1034.733643,219.400055 1033.885986,218.306931 
	C1032.185059,216.145996 1030.639282,213.829819 1028.707886,211.899582 
	C1027.921021,211.113205 1026.296997,211.164368 1024.967163,210.364288 
	C1024.782227,210.057251 1024.511108,209.918777 1024.005005,209.237076 
	C1019.252075,204.907715 1014.570312,200.495895 1009.706421,196.294998 
	C1008.066101,194.878235 1005.963440,193.996658 1004.050720,192.944290 
	C1004.050720,192.944290 1004.124695,192.923508 1003.871887,192.276978 
	C997.938904,187.807678 992.005981,183.338394 986.051880,178.943008 
	C986.051880,178.943008 986.125977,178.922592 985.891846,178.307388 
	C984.953796,177.824615 984.015808,177.341843 983.058655,176.933182 
	C983.058655,176.933182 983.133240,176.915909 982.854614,176.255234 
	C981.592773,175.155731 980.368225,174.009521 979.062256,172.965256 
	C974.639404,169.428818 970.557312,165.612946 965.186279,163.169983 
	C959.165527,160.431503 953.752380,156.357193 948.060425,152.937973 
	C948.060425,152.937973 948.133667,152.920837 948.006531,152.193375 
	C945.451660,150.697052 942.848389,149.276810 940.351624,147.689133 
	C934.512634,143.976257 928.872070,139.925354 922.874756,136.494568 
	C916.829102,133.036057 910.459229,130.141678 904.214172,127.034706 
	C894.679382,122.290985 885.257202,117.293015 875.547180,112.937912 
	C867.413818,109.289948 858.906006,106.485046 850.621643,103.163010 
	C843.248047,100.206169 836.106995,96.586197 828.583923,94.106857 
	C819.847351,91.227554 810.759277,89.433617 801.914001,86.858589 
	C796.160889,85.183739 790.679382,82.504883 784.878418,81.082115 
	C776.395935,79.001678 767.720459,77.719742 759.156067,75.957634 
	C750.793579,74.237061 742.496399,72.188965 734.112976,70.584938 
	C729.809875,69.761604 725.381470,69.593536 720.342529,68.980698 
	C719.891846,69.027733 719.441162,69.074768 718.213135,69.003860 
	C716.478333,68.706993 714.743591,68.410133 712.339661,67.979004 
	C711.889832,68.027725 711.440002,68.076447 710.210144,68.006111 
	C708.475769,67.701347 706.741394,67.396584 704.335266,66.989021 
	C703.886963,67.033607 703.438721,67.078201 702.105225,67.003571 
	C695.739380,66.368057 689.373474,65.732544 682.209229,64.973511 
	C681.136353,65.022331 680.063416,65.071152 678.087646,64.999947 
	C674.766113,64.973495 671.444580,64.947037 667.767578,64.215080 
M625.853577,1220.025513 
	C636.893372,1220.025513 647.933105,1220.025513 658.972900,1220.025513 
	C658.968140,1219.798340 658.963440,1219.571167 658.958679,1219.343994 
	C646.649292,1219.343994 634.339844,1219.343994 622.030396,1219.343994 
	C622.026062,1219.562622 622.021729,1219.781250 622.017395,1219.999878 
	C622.997742,1219.999878 623.978027,1219.999878 625.853577,1220.025513 
M654.223389,61.997211 
	C643.441284,61.997211 632.659241,61.997211 621.877136,61.997211 
	C621.880737,62.230576 621.884338,62.463940 621.887939,62.697304 
	C634.271729,62.697304 646.655518,62.697304 659.039246,62.697304 
	C659.045227,62.456387 659.051147,62.215469 659.057129,61.974552 
	C657.749756,61.974552 656.442383,61.974552 654.223389,61.997211 
M63.031555,635.521851 
	C63.031555,631.589111 63.031555,627.656372 63.031555,623.723572 
	C62.766068,623.727112 62.500580,623.730591 62.235092,623.734070 
	C62.235092,635.244324 62.235092,646.754639 62.235092,658.264954 
	C62.500805,658.268127 62.766518,658.271301 63.032230,658.274536 
	C63.032230,651.021301 63.032230,643.768005 63.031555,635.521851 
M1218.982910,654.140137 
	C1219.042725,655.470337 1219.102539,656.800476 1219.162354,658.130676 
	C1219.339844,658.118347 1219.517456,658.106018 1219.694946,658.093689 
	C1219.694946,646.705505 1219.694946,635.317322 1219.694946,623.929077 
	C1219.465454,623.929260 1219.235962,623.929443 1219.006470,623.929626 
	C1219.006470,633.692993 1219.006470,643.456360 1218.982910,654.140137 
z"/>
<path fill="#379AD6" opacity="1.000000" stroke="none" 
	d="
M247.859344,1063.046387 
	C247.266174,1062.599731 246.672974,1062.153198 245.973618,1061.079712 
	C243.409134,1056.797241 241.408569,1052.487549 235.765137,1053.383423 
	C235.765137,1053.383423 235.465042,1053.419312 235.639038,1053.000000 
	C237.224609,1046.410400 231.691177,1047.700195 228.849838,1046.098145 
	C228.849838,1046.098145 228.717102,1046.340698 228.713028,1045.988281 
	C227.705978,1043.484985 227.149796,1040.919312 225.613251,1039.263550 
	C221.589874,1034.927979 216.791687,1031.288940 212.939209,1026.822876 
	C207.241638,1020.217957 202.219482,1013.034729 196.652008,1006.311096 
	C194.410873,1003.604614 191.488297,1001.462280 188.875870,999.063171 
	C188.875885,999.063171 188.948029,999.043823 188.942062,998.713623 
	C187.273117,996.627380 185.610138,994.871277 183.947159,993.115173 
	C183.275986,993.224182 182.048447,993.520203 182.013306,993.415588 
	C180.015564,987.469910 174.322876,984.314697 171.434235,978.724487 
	C167.131943,970.398376 160.266739,963.442261 155.190781,955.458923 
	C148.405807,944.787598 142.048172,933.823914 135.947922,922.743164 
	C128.553574,909.311646 121.460587,895.706726 114.571373,882.008728 
	C112.139153,877.172729 110.745186,871.820740 108.780418,866.741760 
	C106.197128,860.063965 103.398262,853.467529 100.909576,846.755554 
	C97.459373,837.450317 94.215591,828.068604 90.867531,818.725342 
	C90.648514,818.114136 90.198311,817.579102 90.020210,816.961182 
	C89.299812,814.461670 88.766754,811.902649 87.943840,809.439270 
	C83.382439,795.784973 79.453331,782.014709 77.799606,767.621094 
	C77.211845,762.505432 74.767342,757.627380 73.866364,752.518188 
	C72.281311,743.529480 71.189659,734.452087 69.969238,725.401306 
	C68.617332,715.375549 67.085045,705.363342 66.133789,695.297729 
	C65.357162,687.080078 65.335152,678.791687 64.934273,670.536804 
	C64.887810,669.580017 64.558205,668.636963 64.469879,667.041748 
	C64.431465,665.274353 64.283028,664.152710 64.134590,663.031128 
	C64.081497,661.626038 64.028412,660.220886 64.406570,658.243896 
	C65.203194,656.964905 65.880470,656.260437 65.886757,655.550110 
	C65.970604,646.090942 66.018555,636.630188 65.892616,627.172302 
	C65.878502,626.112244 64.746277,625.067017 64.132553,624.014954 
	C64.080658,622.285034 64.028763,620.555115 64.236885,618.206177 
	C64.404335,616.779114 64.311760,615.971130 64.219193,615.163086 
	C64.465111,613.216736 64.764839,611.275391 64.948372,609.323181 
	C66.283180,595.124329 67.590797,580.922913 68.915031,566.723083 
	C69.554260,559.868652 69.840797,552.954773 70.957375,546.178284 
	C72.226166,538.478088 74.323532,530.917908 75.916595,523.266846 
	C78.003662,513.243164 79.947037,503.189636 81.957520,493.150024 
	C82.944771,488.220062 83.805321,483.258972 84.987732,478.376007 
	C85.746170,475.243896 86.283409,471.682922 88.153961,469.271515 
	C92.397804,463.800781 93.312836,456.839905 95.174141,450.880493 
	C97.292267,444.098877 101.268700,437.899841 102.172523,430.532196 
	C102.756546,425.771484 106.064438,421.377106 107.944954,416.734833 
	C110.112778,411.383209 111.745621,405.797485 114.160896,400.567444 
	C118.232300,391.751190 122.258881,382.855194 127.154625,374.490356 
	C139.136597,354.018127 151.502731,333.767700 163.935333,313.564056 
	C167.911209,307.103027 172.432281,300.956848 177.005127,294.893768 
	C178.864578,292.428375 181.825012,290.802277 183.736542,288.364655 
	C185.534637,286.071655 186.490036,283.137756 188.046127,280.628418 
	C189.160248,278.831787 190.515106,277.132202 192.008347,275.634308 
	C194.706253,272.928009 197.617508,270.435608 200.371307,267.782898 
	C201.027710,267.150604 201.506348,266.281494 201.899887,265.442963 
	C202.311203,264.566589 202.252975,263.335785 202.861816,262.707306 
	C207.849411,257.558716 212.944595,252.514343 218.007950,247.439163 
	C218.596313,246.849426 219.211624,246.285065 219.777603,245.674744 
	C223.632736,241.517578 227.478043,237.351273 231.860718,233.258759 
	C236.691254,234.040863 236.977310,232.075729 235.381470,228.854599 
	C235.381470,228.854599 235.476196,228.572937 236.012222,228.666702 
	C241.827667,228.670197 244.137741,225.053894 245.948318,220.844452 
	C246.407410,220.277161 246.866486,219.709885 247.963226,219.045746 
	C251.382492,216.244217 254.164108,213.539536 256.945740,210.834854 
	C256.918701,210.476089 257.061615,210.207886 257.981262,209.988693 
	C262.806152,206.720764 267.163788,203.657288 271.191254,200.208282 
	C273.694946,198.064194 275.698761,195.336380 277.926971,192.870575 
	C277.926971,192.870575 277.948700,192.944550 278.282532,192.939896 
	C283.527557,189.549026 288.505432,186.253204 293.302246,182.712128 
	C294.480438,181.842377 295.067535,180.171982 295.926361,178.869690 
	C295.926361,178.869675 295.948181,178.943695 296.284271,178.939484 
	C297.684631,178.545517 298.883942,178.354141 299.792511,177.735641 
	C310.431885,170.493042 321.045776,163.212402 331.604889,155.853516 
	C332.592621,155.165161 333.161224,153.875381 333.924438,152.864853 
	C333.924438,152.864853 333.939301,152.938812 334.283173,152.936768 
	C335.880981,152.536255 337.228546,152.315872 338.375031,151.713089 
	C361.631256,139.485733 384.400665,126.204491 408.242279,115.257103 
	C429.029968,105.711975 450.743530,97.914917 472.565765,90.973152 
	C491.266998,85.024178 510.712006,81.422462 529.797302,76.659279 
	C531.947266,76.122719 533.897095,74.784538 535.939758,73.818085 
	C544.765259,69.390694 554.515442,70.228073 563.887939,69.003784 
	C575.551575,67.480232 587.248596,66.174171 598.958679,65.063759 
	C603.578125,64.625717 608.271606,64.968201 613.772461,64.970245 
	C616.065002,64.702049 617.516541,64.418877 618.968018,64.135696 
	C620.699280,64.083694 622.430481,64.031700 624.744141,64.409622 
	C626.033508,65.204971 626.737366,65.881607 627.447876,65.888542 
	C636.241577,65.974396 645.037109,66.024994 653.829407,65.894653 
	C654.889648,65.878937 655.933289,64.748154 656.984619,64.134186 
	C658.718750,64.081856 660.452942,64.029526 662.889771,64.257568 
	C664.711975,64.717026 665.831604,64.896126 667.115112,65.425644 
	C671.286560,67.407715 675.263489,68.493965 678.990540,65.119972 
	C680.063416,65.071152 681.136353,65.022331 682.645874,65.420410 
	C684.040161,66.569504 684.936218,67.758720 685.966187,67.888931 
	C690.253784,68.430969 694.578979,68.825020 698.896362,68.893555 
	C700.251343,68.915062 701.625183,67.746590 702.990417,67.122803 
	C703.438721,67.078201 703.886963,67.033607 704.700439,67.407242 
	C706.877380,71.147957 708.869446,70.908203 710.990173,68.125175 
	C711.440002,68.076447 711.889832,68.027725 712.706299,68.411224 
	C714.900391,72.020004 716.874878,72.070450 718.990479,69.121796 
	C719.441162,69.074768 719.891846,69.027733 720.708740,69.417953 
	C721.698669,70.528595 722.231384,71.647461 722.962036,71.796600 
	C725.805786,72.377022 728.730835,72.545830 731.592346,73.054955 
	C744.209229,75.299759 757.034973,76.783867 769.375671,80.077385 
	C791.310242,85.931328 813.149414,92.298126 834.665710,99.529762 
	C870.922852,111.715813 905.042969,128.650314 937.885437,148.207108 
	C941.098022,150.120087 944.708069,151.365540 948.133667,152.920837 
	C948.133667,152.920837 948.060425,152.937973 948.126709,153.239929 
	C949.515991,154.727600 950.729004,156.073044 952.180237,157.072708 
	C960.726746,162.960037 969.301025,168.808502 977.937500,174.562546 
	C979.499023,175.602844 981.392822,176.144211 983.133240,176.915924 
	C983.133240,176.915909 983.058655,176.933182 983.140137,177.237015 
	C984.189758,178.001434 985.157898,178.462006 986.125977,178.922592 
	C986.125977,178.922592 986.051880,178.943008 986.099731,179.256683 
	C989.791016,182.729858 993.318726,186.038681 997.123962,188.989624 
	C999.216187,190.612091 1001.775818,191.631958 1004.124695,192.923508 
	C1004.124695,192.923508 1004.050720,192.944290 1004.098877,193.257172 
	C1007.681396,196.874939 1011.077759,200.345963 1014.794189,203.431458 
	C1017.708740,205.851227 1021.019287,207.794113 1024.153931,209.948853 
	C1024.511108,209.918777 1024.782227,210.057251 1025.048828,210.951202 
	C1028.133911,214.009903 1031.137085,216.481689 1034.140381,218.953430 
	C1034.733643,219.400055 1035.326782,219.846695 1036.026367,220.920166 
	C1038.588745,225.203857 1040.593140,229.505219 1046.230225,228.622421 
	C1046.230225,228.622421 1046.530396,228.581146 1046.358643,229.000198 
	C1044.775635,235.589142 1050.308350,234.300323 1053.150146,235.901871 
	C1053.150146,235.901871 1053.282959,235.659225 1053.287109,236.011658 
	C1054.295898,238.516800 1054.853638,241.084503 1056.392212,242.741516 
	C1060.406738,247.065292 1065.197510,250.691040 1069.041504,255.145142 
	C1074.637329,261.629150 1079.541382,268.705719 1085.012695,275.303864 
	C1087.364502,278.139954 1090.399292,280.409668 1093.123779,282.936707 
	C1093.123779,282.936707 1093.051636,282.956024 1093.057739,283.286255 
	C1094.726807,285.372620 1096.389648,287.128815 1098.052612,288.885010 
	C1098.723755,288.775696 1099.941284,288.462433 1099.987549,288.586365 
	C1102.220947,294.570831 1107.843750,298.014069 1110.825195,303.692810 
	C1114.832275,311.325134 1121.183716,317.685974 1125.981567,324.953796 
	C1132.516724,334.853180 1139.023926,344.829681 1144.651367,355.254486 
	C1151.592163,368.112366 1157.595459,381.475281 1164.049072,394.597748 
	C1166.341187,399.258453 1169.169434,403.696747 1171.045654,408.512146 
	C1174.959106,418.555420 1177.725952,429.096130 1182.251587,438.834045 
	C1185.844604,446.565674 1187.975464,454.698242 1190.962646,462.571869 
	C1196.607544,477.451019 1200.360229,492.922546 1203.712769,508.451538 
	C1205.875488,518.468384 1207.390869,528.629944 1209.028198,538.753845 
	C1211.110596,551.630066 1213.419434,564.488708 1214.888306,577.439209 
	C1216.149048,588.553223 1216.354370,599.786438 1217.061035,610.964661 
	C1217.131958,612.088379 1217.441528,613.197021 1217.530151,614.958374 
	C1217.568481,616.725281 1217.716919,617.846436 1217.865479,618.967651 
	C1217.918335,620.698730 1217.971191,622.429871 1217.593750,624.742371 
	C1216.797363,626.030457 1216.118408,626.734253 1216.111816,627.444214 
	C1216.027222,636.571716 1215.978638,645.700989 1216.107178,654.827148 
	C1216.122192,655.887817 1217.253052,656.932800 1217.866699,657.984985 
	C1217.917725,659.393005 1217.968750,660.800964 1217.749512,662.862122 
	C1217.589111,664.630493 1217.699219,665.745789 1217.809326,666.861023 
	C1217.553833,668.804626 1217.236328,670.742432 1217.052734,672.692810 
	C1215.714966,686.894226 1214.409546,701.098633 1213.082397,715.301086 
	C1212.426758,722.316101 1212.114868,729.389160 1210.979126,736.326477 
	C1209.745728,743.859619 1207.648682,751.247375 1206.085327,758.731384 
	C1203.993042,768.746277 1202.054932,778.793274 1200.044800,788.825378 
	C1199.057617,793.753113 1198.195557,798.711792 1197.013184,803.592529 
	C1196.255127,806.721252 1195.762817,810.364685 1193.825439,812.656860 
	C1190.522583,816.564575 1190.903320,821.403320 1189.156616,825.652710 
	C1184.527588,836.914062 1180.500854,848.421875 1176.162231,859.804077 
	C1173.171021,867.651733 1170.358887,875.588257 1166.918457,883.238586 
	C1163.333374,891.210449 1159.081177,898.881775 1155.136963,906.692871 
	C1144.138428,928.474426 1131.565552,949.319824 1117.732544,969.406982 
	C1113.974487,974.864075 1110.113647,980.265137 1106.014771,985.467102 
	C1103.703125,988.400757 1100.559570,990.680176 1098.258789,993.620605 
	C1096.463013,995.915527 1095.510010,998.850525 1093.953125,1001.358643 
	C1092.839844,1003.152100 1091.483154,1004.845825 1089.992798,1006.342712 
	C1087.300415,1009.046936 1084.378174,1011.521423 1081.660889,1014.202271 
	C1080.920410,1014.932617 1080.587036,1016.067993 1080.034668,1016.998413 
	C1079.300049,1018.235840 1078.646484,1019.544006 1077.757080,1020.661865 
	C1076.091675,1022.754944 1074.329590,1024.776978 1072.514404,1026.742554 
	C1071.417114,1027.930908 1070.062744,1028.881958 1068.965698,1030.070312 
	C1065.630127,1033.682861 1062.464966,1037.457520 1059.040405,1040.981567 
	C1055.853149,1044.261353 1052.418091,1047.300293 1048.572388,1050.781494 
	C1047.546387,1051.829834 1047.040039,1052.542236 1046.533813,1053.254517 
	C1046.533813,1053.254517 1046.438721,1053.443237 1045.947754,1053.342407 
	C1040.171631,1053.324463 1037.863770,1056.945312 1036.052124,1061.156006 
	C1035.592896,1061.723022 1035.133789,1062.290161 1034.037109,1062.954346 
	C1030.617798,1065.755371 1027.835815,1068.459473 1025.053955,1071.163574 
	C1025.078979,1071.521484 1024.935791,1071.789429 1024.017944,1072.009888 
	C1019.193542,1075.278809 1014.835876,1078.342529 1010.808472,1081.791748 
	C1008.304932,1083.935791 1006.301392,1086.663940 1004.073486,1089.130005 
	C1004.073486,1089.130005 1004.051392,1089.055786 1003.717651,1089.060425 
	C998.472412,1092.451050 993.494202,1095.746582 988.697266,1099.287720 
	C987.519226,1100.157349 986.932800,1101.828491 986.074341,1103.131104 
	C986.074341,1103.131104 986.052673,1103.057007 985.734497,1103.065796 
	C984.637329,1103.763184 983.858276,1104.451782 983.079224,1105.140503 
	C983.079285,1105.140503 983.058838,1105.066040 982.723999,1105.066406 
	C981.078308,1105.700439 979.693298,1106.216064 978.467651,1106.985474 
	C957.065430,1120.420654 936.220947,1134.853760 914.174072,1147.127930 
	C877.742371,1167.410645 839.150085,1182.893188 798.939270,1194.152466 
	C789.052246,1196.920776 779.214600,1200.004272 769.171875,1202.045654 
	C753.936035,1205.142334 738.533630,1207.415771 723.230896,1210.198120 
	C722.357300,1210.356934 721.743835,1211.947266 721.009277,1212.871460 
	C720.559204,1212.921021 720.109070,1212.970581 719.196533,1212.618652 
	C716.126892,1210.378906 713.911316,1209.883057 713.008362,1213.887451 
	C712.557983,1213.931274 712.107666,1213.975098 711.195251,1213.617676 
	C707.845886,1213.218628 704.955139,1213.131836 702.071960,1213.242065 
	C696.604736,1213.451172 691.128906,1213.641602 685.688843,1214.170288 
	C684.715637,1214.264771 683.897278,1215.951904 683.007446,1216.903687 
	C681.933533,1216.943848 680.859619,1216.984009 679.237244,1216.601318 
	C674.665283,1214.583862 670.675171,1213.558960 666.596436,1216.904297 
	C665.179871,1217.248169 664.106750,1217.556274 663.033569,1217.864380 
	C661.302002,1217.916748 659.570435,1217.969116 657.256714,1217.591797 
	C655.967712,1216.796265 655.263916,1216.118774 654.553589,1216.111816 
	C645.759460,1216.025757 636.963440,1215.974976 628.170715,1216.105225 
	C627.110474,1216.120728 626.066711,1217.251831 625.015381,1217.865723 
	C623.280762,1217.918091 621.546143,1217.970459 619.109863,1217.742432 
	C617.293274,1217.265259 616.178284,1217.068237 614.890869,1216.526733 
	C610.709534,1214.639160 606.723938,1213.486084 603.009338,1216.880127 
	C601.936462,1216.928955 600.863647,1216.977783 599.354004,1216.579590 
	C598.126465,1215.444946 597.394043,1214.252686 596.535217,1214.153320 
	C591.922852,1213.619995 587.276245,1213.391724 582.647339,1212.989868 
	C580.117371,1212.770386 577.593750,1212.168335 575.077515,1212.221680 
	C573.710571,1212.250488 572.364990,1213.290771 571.009827,1213.874878 
	C570.559998,1213.923584 570.110168,1213.972290 569.293701,1213.588745 
	C567.099487,1209.981567 565.125122,1209.928833 563.009521,1212.878296 
	C562.558838,1212.925293 562.108154,1212.972290 561.291260,1212.582031 
	C557.418152,1211.084229 553.971802,1209.710815 550.393616,1209.019287 
	C537.812195,1206.587769 524.965088,1205.216431 512.624451,1201.922974 
	C490.689850,1196.068848 468.850922,1189.701294 447.334473,1182.469971 
	C411.077057,1170.284302 376.956940,1153.349609 344.114471,1133.792725 
	C340.901825,1131.879639 337.291779,1130.634155 333.866150,1129.078857 
	C333.866150,1129.078857 333.939484,1129.062134 333.873291,1128.760132 
	C332.479034,1127.269531 331.259613,1125.923706 329.804962,1124.918335 
	C321.648376,1119.280884 313.486542,1113.647583 305.213593,1108.183716 
	C302.263275,1106.235229 298.996582,1104.765625 295.874268,1103.077515 
	C295.874268,1103.077515 295.948547,1103.056641 295.900513,1102.743164 
	C292.208893,1099.270142 288.681152,1095.961304 284.875763,1093.010498 
	C282.783539,1091.388062 280.223907,1090.368286 277.875000,1089.076904 
	C277.875000,1089.076904 277.949158,1089.055908 277.900940,1088.743164 
	C274.318451,1085.125244 270.922241,1081.654053 267.205872,1078.568359 
	C264.291290,1076.148560 260.980621,1074.205688 257.845886,1072.051025 
	C257.488708,1072.081055 257.217682,1071.942505 256.951050,1071.048584 
	C253.865997,1067.989868 250.862671,1065.518188 247.859344,1063.046387 
M527.425354,327.750214 
	C527.666321,327.559357 527.853577,327.325500 528.917969,326.916260 
	C542.563416,326.916260 556.208862,326.916260 570.181641,326.916260 
	C570.181641,315.806244 570.181641,305.072968 570.181641,294.427216 
	C544.630981,294.427216 519.406982,294.427216 494.019073,294.427216 
	C494.019073,324.672668 494.010620,354.500641 494.060211,384.328522 
	C494.061676,385.218933 494.672516,386.108337 495.665741,387.491150 
	C496.637787,387.657745 497.609650,387.968536 498.581909,387.969788 
	C521.012451,387.998627 543.443054,388.013702 565.873474,387.947479 
	C567.276672,387.943329 568.677979,387.252960 570.323364,386.120636 
	C570.199951,376.293427 570.076477,366.466217 569.577454,355.995911 
	C567.851379,355.665161 566.127197,355.059082 564.398987,355.047791 
	C551.946289,354.966339 539.492798,355.005432 526.899841,354.077118 
	C526.946899,345.381104 526.994019,336.685120 527.425354,327.750214 
M679.453613,386.232483 
	C679.536865,378.084717 679.476013,369.931763 679.771484,361.791687 
	C679.896301,358.353455 678.908752,355.886383 676.385437,353.498199 
	C668.404175,345.944550 660.645020,338.156036 652.822754,330.435181 
	C651.870178,329.494965 651.056641,328.413879 649.469177,326.577332 
	C660.211975,326.577332 669.791016,326.577332 679.380798,326.577332 
	C679.380798,315.552032 679.380798,304.977051 679.380798,294.358704 
	C653.846191,294.358704 628.636597,294.358704 603.090942,294.358704 
	C603.090942,304.672821 602.985107,314.642029 603.201782,324.604248 
	C603.235413,326.149414 604.455566,327.944092 605.621643,329.141846 
	C610.731506,334.390594 615.976501,339.510986 621.264648,344.581818 
	C625.146729,348.304352 629.171814,351.877808 633.133179,355.517700 
	C632.818176,355.989990 632.503113,356.462311 632.188110,356.934601 
	C622.635986,356.934601 613.083801,356.934601 603.089355,356.934601 
	C603.089355,363.866943 602.990540,370.325317 603.129761,376.778534 
	C603.203186,380.185059 603.691528,383.582642 604.656921,387.482788 
	C605.627563,387.652100 606.597961,387.967926 607.568787,387.969208 
	C629.983826,387.998688 652.398865,388.013092 674.813721,387.950287 
	C676.221924,387.946350 677.628357,387.289185 679.453613,386.232483 
M712.585571,387.406830 
	C713.549744,387.600433 714.513733,387.961670 715.478210,387.963074 
	C738.069092,387.996521 760.660156,388.006958 783.250916,387.950378 
	C784.501648,387.947266 785.750732,387.329834 787.633484,386.430145 
	C787.752319,382.780609 787.453918,379.059692 788.063965,375.494202 
	C790.396790,361.858612 785.654724,351.646820 774.632935,343.379120 
	C768.659180,338.898041 763.881897,332.822021 757.860046,326.755371 
	C768.398499,326.755371 777.971497,326.755371 787.581787,326.755371 
	C787.581787,315.596924 787.581787,304.897400 787.581787,294.333618 
	C762.092285,294.333618 737.012085,294.333618 711.503479,294.333618 
	C711.503479,304.788391 711.389038,314.927673 711.626831,325.058716 
	C711.662476,326.580078 713.098755,328.309296 714.308289,329.522400 
	C721.013245,336.246979 727.852905,342.837036 734.636353,349.483459 
	C736.811401,351.614624 738.955750,353.777039 742.184814,356.990631 
	C730.988403,356.990631 721.446594,356.990631 711.919617,356.990631 
	C711.919617,367.317993 711.919617,377.099915 712.585571,387.406830 
M887.546692,429.900787 
	C885.798828,429.601227 884.051697,429.046844 882.302917,429.041199 
	C862.976257,428.978882 843.649292,429.001617 824.322449,429.001617 
	C683.203003,429.001648 542.083618,428.994598 400.964203,429.064758 
	C398.660370,429.065887 396.356964,430.009399 393.647705,430.853027 
	C393.481384,430.911835 393.315063,430.970612 392.631378,431.567444 
	C392.921295,433.202545 393.211243,434.837677 393.873108,437.104126 
	C394.344666,442.412781 394.794525,447.723480 395.291260,453.029755 
	C398.829834,490.831482 402.421326,528.628296 405.910828,566.434509 
	C409.415771,604.408630 412.774841,642.396118 416.284058,680.369751 
	C420.436798,725.306702 424.722809,770.231201 428.874207,815.168213 
	C432.382233,853.141174 435.814117,891.121216 439.171295,929.107727 
	C439.479279,932.592712 440.782135,934.143494 444.284210,935.079651 
	C508.075104,952.133118 571.813843,969.381714 635.611877,986.408203 
	C638.926758,987.292847 642.881714,987.358398 646.184021,986.476807 
	C709.980835,969.446289 773.713379,952.175171 837.507507,935.134583 
	C841.265198,934.130798 842.562256,932.499939 842.859436,928.818176 
	C844.025269,914.377869 845.469238,899.960266 846.784790,885.531860 
	C851.245117,836.609070 855.644592,787.680664 860.162292,738.763184 
	C864.986145,686.529785 869.960083,634.310181 874.790039,582.077332 
	C879.359314,532.663330 883.831116,483.240234 888.310242,433.817932 
	C888.408142,432.737122 888.077637,431.617523 887.546692,429.900787 
z"/>
<path fill="#3AA3E4" opacity="1.000000" stroke="none" 
	d="
M721.416443,1212.769043 
	C721.743835,1211.947266 722.357300,1210.356934 723.230896,1210.198120 
	C738.533630,1207.415771 753.936035,1205.142334 769.171875,1202.045654 
	C779.214600,1200.004272 789.052246,1196.920776 798.939270,1194.152466 
	C839.150085,1182.893188 877.742371,1167.410645 914.174072,1147.127930 
	C936.220947,1134.853760 957.065430,1120.420654 978.467651,1106.985474 
	C979.693298,1106.216064 981.078308,1105.700439 982.761475,1105.075562 
	C979.401184,1108.083496 975.704346,1111.128662 971.925842,1114.068726 
	C968.039795,1117.092407 964.248657,1120.289307 960.102417,1122.915161 
	C953.907410,1126.838501 947.379211,1130.231323 941.100525,1134.027954 
	C934.217224,1138.190308 927.552429,1142.719971 920.608215,1146.773926 
	C915.991516,1149.469116 911.001404,1151.516357 906.273560,1154.032349 
	C902.900635,1155.827393 899.813965,1158.188965 896.374878,1159.825562 
	C888.156006,1163.737305 879.845520,1167.464844 871.492859,1171.084229 
	C865.263794,1173.783203 858.961304,1176.330933 852.602600,1178.708374 
	C840.167053,1183.358154 827.730469,1188.020264 815.170166,1192.314331 
	C809.383118,1194.292969 803.266418,1195.284790 797.366516,1196.960815 
	C789.575623,1199.174316 781.901550,1201.811768 774.076477,1203.887085 
	C770.040771,1204.957520 765.743591,1205.001099 761.641907,1205.872681 
	C754.504395,1207.389404 747.453308,1209.314697 740.312378,1210.813110 
	C736.966797,1211.515259 733.499207,1211.652466 730.081360,1211.988647 
	C727.333130,1212.259155 724.576538,1212.443970 721.416443,1212.769043 
z"/>
<path fill="#3AA4E4" opacity="1.000000" stroke="none" 
	d="
M333.929779,1129.442627 
	C337.291779,1130.634155 340.901825,1131.879639 344.114471,1133.792725 
	C376.956940,1153.349609 411.077057,1170.284302 447.334473,1182.469971 
	C468.850922,1189.701294 490.689850,1196.068848 512.624451,1201.922974 
	C524.965088,1205.216431 537.812195,1206.587769 550.393616,1209.019287 
	C553.971802,1209.710815 557.418152,1211.084229 560.957642,1212.507812 
	C556.289062,1212.395752 551.524292,1212.253540 546.900391,1211.372437 
	C538.789124,1209.826782 530.778015,1207.763306 522.699402,1206.036499 
	C513.061584,1203.976196 503.316437,1202.359985 493.770477,1199.947266 
	C486.714417,1198.163818 479.955841,1195.235718 472.965729,1193.149048 
	C467.106018,1191.399902 460.930725,1190.608276 455.202118,1188.541748 
	C445.582642,1185.071655 436.207733,1180.923584 426.728638,1177.063965 
	C416.968475,1173.089966 406.923553,1169.691284 397.507050,1165.024292 
	C380.126282,1156.410034 363.062469,1147.147827 345.984314,1137.937256 
	C341.755646,1135.656616 337.978241,1132.539307 333.929779,1129.442627 
z"/>
<path fill="#3AA4E4" opacity="1.000000" stroke="none" 
	d="
M948.070068,152.557098 
	C944.708069,151.365540 941.098022,150.120087 937.885437,148.207108 
	C905.042969,128.650314 870.922852,111.715813 834.665710,99.529762 
	C813.149414,92.298126 791.310242,85.931328 769.375671,80.077385 
	C757.034973,76.783867 744.209229,75.299759 731.592346,73.054955 
	C728.730835,72.545830 725.805786,72.377022 722.962036,71.796600 
	C722.231384,71.647461 721.698669,70.528595 721.042358,69.492279 
	C725.381470,69.593536 729.809875,69.761604 734.112976,70.584938 
	C742.496399,72.188965 750.793579,74.237061 759.156067,75.957634 
	C767.720459,77.719742 776.395935,79.001678 784.878418,81.082115 
	C790.679382,82.504883 796.160889,85.183739 801.914001,86.858589 
	C810.759277,89.433617 819.847351,91.227554 828.583923,94.106857 
	C836.106995,96.586197 843.248047,100.206169 850.621643,103.163010 
	C858.906006,106.485046 867.413818,109.289948 875.547180,112.937912 
	C885.257202,117.293015 894.679382,122.290985 904.214172,127.034706 
	C910.459229,130.141678 916.829102,133.036057 922.874756,136.494568 
	C928.872070,139.925354 934.512634,143.976257 940.351624,147.689133 
	C942.848389,149.276810 945.451660,150.697052 948.070068,152.557098 
z"/>
<path fill="#3AA4E4" opacity="1.000000" stroke="none" 
	d="
M535.488403,73.891907 
	C533.897095,74.784538 531.947266,76.122719 529.797302,76.659279 
	C510.712006,81.422462 491.266998,85.024178 472.565765,90.973152 
	C450.743530,97.914917 429.029968,105.711975 408.242279,115.257103 
	C384.400665,126.204491 361.631256,139.485733 338.375031,151.713089 
	C337.228546,152.315872 335.880981,152.536255 334.246521,152.927917 
	C334.441864,151.993607 334.793274,150.661728 335.627106,150.198822 
	C349.422119,142.540527 363.198425,134.841278 377.146027,127.467270 
	C387.556091,121.963531 398.074707,116.624748 408.791870,111.755974 
	C416.319885,108.336029 424.273682,105.857765 432.018463,102.909378 
	C442.461639,98.933723 452.798340,94.655533 463.351044,90.998665 
	C470.195526,88.626839 477.348358,87.148514 484.355011,85.240402 
	C494.814362,82.392029 505.200104,79.234016 515.746948,76.761070 
	C522.048950,75.283417 528.598694,74.861961 535.488403,73.891907 
z"/>
<path fill="#3AA4E4" opacity="1.000000" stroke="none" 
	d="
M188.807053,999.407654 
	C191.488297,1001.462280 194.410873,1003.604614 196.652008,1006.311096 
	C202.219482,1013.034729 207.241638,1020.217957 212.939209,1026.822876 
	C216.791687,1031.288940 221.589874,1034.927979 225.613251,1039.263550 
	C227.149796,1040.919312 227.705978,1043.484985 228.587982,1045.929321 
	C225.850342,1043.199707 223.303543,1040.112183 220.591782,1037.177124 
	C218.853882,1035.296021 216.815674,1033.696289 215.012253,1031.871338 
	C211.234558,1028.048706 207.300598,1024.347046 203.856461,1020.238831 
	C201.215454,1017.088562 199.458145,1013.205261 196.876160,1009.995178 
	C194.737381,1007.336304 191.883316,1005.263855 189.535187,1002.754639 
	C188.911850,1002.088562 188.984924,1000.770752 188.807053,999.407654 
z"/>
<path fill="#3AA4E4" opacity="1.000000" stroke="none" 
	d="
M1093.192871,282.592285 
	C1090.399292,280.409668 1087.364502,278.139954 1085.012695,275.303864 
	C1079.541382,268.705719 1074.637329,261.629150 1069.041504,255.145142 
	C1065.197510,250.691040 1060.406738,247.065292 1056.392212,242.741516 
	C1054.853638,241.084503 1054.295898,238.516800 1053.412109,236.070740 
	C1056.151978,238.800232 1058.693604,241.894928 1061.413696,244.823868 
	C1063.701782,247.287689 1066.203979,249.552032 1068.598999,251.917343 
	C1070.061401,253.361679 1071.548706,254.785492 1072.935913,256.300049 
	C1074.325073,257.816711 1075.629761,259.413544 1076.921997,261.015015 
	C1077.988159,262.336304 1078.959473,263.733795 1080.015869,265.063263 
	C1080.833862,266.092560 1081.729736,267.059601 1082.570435,268.071472 
	C1083.390015,269.058044 1084.200439,270.053436 1084.983154,271.069305 
	C1085.711670,272.014771 1086.310913,273.074341 1087.120605,273.940033 
	C1089.360718,276.335175 1091.693604,278.643585 1093.927002,281.044739 
	C1094.024170,281.149170 1093.497803,281.833557 1093.192871,282.592285 
z"/>
<path fill="#3AA4E4" opacity="1.000000" stroke="none" 
	d="
M333.552277,152.923859 
	C333.161224,153.875381 332.592621,155.165161 331.604889,155.853516 
	C321.045776,163.212402 310.431885,170.493042 299.792511,177.735641 
	C298.883942,178.354141 297.684631,178.545517 296.247131,178.928986 
	C299.802094,175.559875 303.545135,171.944702 307.702911,168.894897 
	C313.584076,164.580948 319.719086,160.603043 325.855164,156.651718 
	C328.137817,155.181839 330.729401,154.191727 333.552277,152.923859 
z"/>
<path fill="#3AA4E4" opacity="1.000000" stroke="none" 
	d="
M296.002441,1103.407959 
	C298.996582,1104.765625 302.263275,1106.235229 305.213593,1108.183716 
	C313.486542,1113.647583 321.648376,1119.280884 329.804962,1124.918335 
	C331.259613,1125.923706 332.479034,1127.269531 333.866119,1128.797119 
	C327.979706,1125.436035 322.365784,1120.957153 315.998901,1118.247192 
	C309.132996,1115.324707 304.697052,1109.417114 298.366699,1106.028687 
	C297.469666,1105.548584 296.868652,1104.515503 296.002441,1103.407959 
z"/>
<path fill="#3AA4E4" opacity="1.000000" stroke="none" 
	d="
M982.993896,176.585571 
	C981.392822,176.144211 979.499023,175.602844 977.937500,174.562546 
	C969.301025,168.808502 960.726746,162.960037 952.180237,157.072708 
	C950.729004,156.073044 949.515991,154.727600 948.133911,153.203018 
	C953.752380,156.357193 959.165527,160.431503 965.186279,163.169983 
	C970.557312,165.612946 974.639404,169.428818 979.062256,172.965256 
	C980.368225,174.009521 981.592773,175.155731 982.993896,176.585571 
z"/>
<path fill="#3DA9EB" opacity="1.000000" stroke="none" 
	d="
M64.073471,624.479370 
	C64.746277,625.067017 65.878502,626.112244 65.892616,627.172302 
	C66.018555,636.630188 65.970604,646.090942 65.886757,655.550110 
	C65.880470,656.260437 65.203194,656.964905 64.485596,657.828369 
	C64.093712,646.971008 64.054047,635.957458 64.073471,624.479370 
z"/>
<path fill="#3DA9EB" opacity="1.000000" stroke="none" 
	d="
M1217.925659,657.520569 
	C1217.253052,656.932800 1216.122192,655.887817 1216.107178,654.827148 
	C1215.978638,645.700989 1216.027222,636.571716 1216.111816,627.444214 
	C1216.118408,626.734253 1216.797363,626.030457 1217.517090,625.169373 
	C1217.908569,635.695374 1217.946655,646.375732 1217.925659,657.520569 
z"/>
<path fill="#3CAAEB" opacity="1.000000" stroke="none" 
	d="
M656.520142,64.075653 
	C655.933289,64.748154 654.889648,65.878937 653.829407,65.894653 
	C645.037109,66.024994 636.241577,65.974396 627.447876,65.888542 
	C626.737366,65.881607 626.033508,65.204971 625.171143,64.486862 
	C635.362366,64.095161 645.709045,64.056137 656.520142,64.075653 
z"/>
<path fill="#3CAAEB" opacity="1.000000" stroke="none" 
	d="
M625.479858,1217.924316 
	C626.066711,1217.251831 627.110474,1216.120728 628.170715,1216.105225 
	C636.963440,1215.974976 645.759460,1216.025757 654.553589,1216.111816 
	C655.263916,1216.118774 655.967712,1216.796265 656.829529,1217.515137 
	C646.637817,1217.906372 636.291016,1217.944580 625.479858,1217.924316 
z"/>
<path fill="#3AA3E4" opacity="1.000000" stroke="none" 
	d="
M1004.434937,1089.076416 
	C1006.301392,1086.663940 1008.304932,1083.935791 1010.808472,1081.791748 
	C1014.835876,1078.342529 1019.193542,1075.278809 1023.782837,1072.051758 
	C1017.701477,1077.708374 1011.248962,1083.365723 1004.434937,1089.076416 
z"/>
<path fill="#3AA4E4" opacity="1.000000" stroke="none" 
	d="
M257.920471,1072.406860 
	C260.980621,1074.205688 264.291290,1076.148560 267.205872,1078.568359 
	C270.922241,1081.654053 274.318451,1085.125244 277.890076,1088.780029 
	C276.033142,1088.000488 273.927979,1087.115112 272.284210,1085.695557 
	C267.423370,1081.497803 262.744843,1077.088989 257.920471,1072.406860 
z"/>
<path fill="#3AA4E4" opacity="1.000000" stroke="none" 
	d="
M1024.079468,209.592957 
	C1021.019287,207.794113 1017.708740,205.851227 1014.794189,203.431458 
	C1011.077759,200.345963 1007.681396,196.874939 1004.109619,193.220276 
	C1005.963440,193.996658 1008.066101,194.878235 1009.706421,196.294998 
	C1014.570312,200.495895 1019.252075,204.907715 1024.079468,209.592957 
z"/>
<path fill="#3AA4E4" opacity="1.000000" stroke="none" 
	d="
M277.565338,192.923615 
	C275.698761,195.336380 273.694946,198.064194 271.191254,200.208282 
	C267.163788,203.657288 262.806152,206.720764 258.216858,209.948090 
	C264.298401,204.291580 270.751068,198.634125 277.565338,192.923615 
z"/>
<path fill="#3AA3E4" opacity="1.000000" stroke="none" 
	d="
M683.418213,1216.814209 
	C683.897278,1215.951904 684.715637,1214.264771 685.688843,1214.170288 
	C691.128906,1213.641602 696.604736,1213.451172 702.071960,1213.242065 
	C704.955139,1213.131836 707.845886,1213.218628 710.861816,1213.546143 
	C701.936584,1214.825317 692.882812,1215.775024 683.418213,1216.814209 
z"/>
<path fill="#3AA4E4" opacity="1.000000" stroke="none" 
	d="
M571.441711,1213.934570 
	C572.364990,1213.290771 573.710571,1212.250488 575.077515,1212.221680 
	C577.593750,1212.168335 580.117371,1212.770386 582.647339,1212.989868 
	C587.276245,1213.391724 591.922852,1213.619995 596.535217,1214.153320 
	C597.394043,1214.252686 598.126465,1215.444946 598.954834,1216.517944 
	C593.689819,1216.273560 588.391357,1215.606323 583.083313,1215.027344 
	C579.353516,1214.620605 575.610657,1214.334229 571.441711,1213.934570 
z"/>
<path fill="#3AA4E4" opacity="1.000000" stroke="none" 
	d="
M278.001495,1089.400146 
	C280.223907,1090.368286 282.783539,1091.388062 284.875763,1093.010498 
	C288.681152,1095.961304 292.208893,1099.270142 295.889679,1102.780151 
	C289.993927,1098.661621 284.060944,1094.192505 278.001495,1089.400146 
z"/>
<path fill="#3AA4E4" opacity="1.000000" stroke="none" 
	d="
M295.560913,178.923248 
	C295.067535,180.171982 294.480438,181.842377 293.302246,182.712128 
	C288.505432,186.253204 283.527557,189.549026 278.245483,192.929306 
	C283.648224,188.274521 289.421875,183.625671 295.560913,178.923248 
z"/>
<path fill="#3AA4E4" opacity="1.000000" stroke="none" 
	d="
M1003.998291,192.600250 
	C1001.775818,191.631958 999.216187,190.612091 997.123962,188.989624 
	C993.318726,186.038681 989.791016,182.729858 986.110229,179.219727 
	C992.005981,183.338394 997.938904,187.807678 1003.998291,192.600250 
z"/>
<path fill="#3AA3E4" opacity="1.000000" stroke="none" 
	d="
M986.439758,1103.077759 
	C986.932800,1101.828491 987.519226,1100.157349 988.697266,1099.287720 
	C993.494202,1095.746582 998.472412,1092.451050 1003.754761,1089.071167 
	C998.352234,1093.726318 992.578674,1098.375366 986.439758,1103.077759 
z"/>
<path fill="#5BC6F3" opacity="1.000000" stroke="none" 
	d="
M625.405945,1220.012695 
	C623.978027,1219.999878 622.997742,1219.999878 622.017395,1219.999878 
	C622.021729,1219.781250 622.026062,1219.562622 622.030396,1219.343994 
	C634.339844,1219.343994 646.649292,1219.343994 658.958679,1219.343994 
	C658.963440,1219.571167 658.968140,1219.798340 658.972900,1220.025513 
	C647.933105,1220.025513 636.893372,1220.025513 625.405945,1220.012695 
z"/>
<path fill="#5BC6F3" opacity="1.000000" stroke="none" 
	d="
M654.679199,61.985882 
	C656.442383,61.974552 657.749756,61.974552 659.057129,61.974552 
	C659.051147,62.215469 659.045227,62.456387 659.039246,62.697304 
	C646.655518,62.697304 634.271729,62.697304 621.887939,62.697304 
	C621.884338,62.463940 621.880737,62.230576 621.877136,61.997211 
	C632.659241,61.997211 643.441284,61.997211 654.679199,61.985882 
z"/>
<path fill="#3AA4E4" opacity="1.000000" stroke="none" 
	d="
M702.547852,67.063187 
	C701.625183,67.746590 700.251343,68.915062 698.896362,68.893555 
	C694.578979,68.825020 690.253784,68.430969 685.966187,67.888931 
	C684.936218,67.758720 684.040161,66.569504 683.045044,65.482178 
	C689.373474,65.732544 695.739380,66.368057 702.547852,67.063187 
z"/>
<path fill="#57CDF6" opacity="1.000000" stroke="none" 
	d="
M63.031891,636.018311 
	C63.032230,643.768005 63.032230,651.021301 63.032230,658.274536 
	C62.766518,658.271301 62.500805,658.268127 62.235092,658.264954 
	C62.235092,646.754639 62.235092,635.244324 62.235092,623.734070 
	C62.500580,623.730591 62.766068,623.727112 63.031555,623.723572 
	C63.031555,627.656372 63.031555,631.589111 63.031891,636.018311 
z"/>
<path fill="#57CDF6" opacity="1.000000" stroke="none" 
	d="
M1218.994629,653.679932 
	C1219.006470,643.456360 1219.006470,633.692993 1219.006470,623.929626 
	C1219.235962,623.929443 1219.465454,623.929260 1219.694946,623.929077 
	C1219.694946,635.317322 1219.694946,646.705505 1219.694946,658.093689 
	C1219.517456,658.106018 1219.339844,658.118347 1219.162354,658.130676 
	C1219.102539,656.800476 1219.042725,655.470337 1218.994629,653.679932 
z"/>
<path fill="#3AA4E4" opacity="1.000000" stroke="none" 
	d="
M1034.013184,218.630188 
	C1031.137085,216.481689 1028.133911,214.009903 1025.092285,211.186310 
	C1026.296997,211.164368 1027.921021,211.113205 1028.707886,211.899582 
	C1030.639282,213.829819 1032.185059,216.145996 1034.013184,218.630188 
z"/>
<path fill="#3AA4E4" opacity="1.000000" stroke="none" 
	d="
M256.603210,210.776474 
	C254.164108,213.539536 251.382492,216.244217 248.230133,218.951233 
	C249.784271,216.352264 251.629974,213.684967 253.698715,211.203629 
	C254.128525,210.688126 255.385147,210.861954 256.603210,210.776474 
z"/>
<path fill="#3AA3E4" opacity="1.000000" stroke="none" 
	d="
M1025.396851,1071.223755 
	C1027.835815,1068.459473 1030.617798,1065.755371 1033.770508,1063.049072 
	C1032.214722,1065.642456 1030.366821,1068.303955 1028.297363,1070.780273 
	C1027.864136,1071.298584 1026.613647,1071.133911 1025.396851,1071.223755 
z"/>
<path fill="#3AA4E4" opacity="1.000000" stroke="none" 
	d="
M247.986908,1063.370117 
	C250.862671,1065.518188 253.865997,1067.989868 256.907593,1070.813477 
	C255.799774,1070.962646 254.238785,1071.160400 253.584869,1070.482666 
	C251.574905,1068.399658 249.912170,1065.981689 247.986908,1063.370117 
z"/>
<path fill="#3AA3E4" opacity="1.000000" stroke="none" 
	d="
M1036.414795,1061.084839 
	C1037.863770,1056.945312 1040.171631,1053.324463 1045.846191,1053.313599 
	C1043.082764,1055.928345 1039.930176,1058.470947 1036.414795,1061.084839 
z"/>
<path fill="#3AA4E4" opacity="1.000000" stroke="none" 
	d="
M235.901306,1053.684326 
	C241.408569,1052.487549 243.409134,1056.797241 245.907944,1060.804199 
	C242.644791,1058.765503 239.341141,1056.375366 235.901306,1053.684326 
z"/>
<path fill="#3AA4E4" opacity="1.000000" stroke="none" 
	d="
M245.601257,220.914917 
	C244.137741,225.053894 241.827667,228.670197 236.158493,228.692825 
	C238.930557,226.078598 242.092377,223.531998 245.601257,220.914917 
z"/>
<path fill="#3AA4E4" opacity="1.000000" stroke="none" 
	d="
M1046.088867,228.321167 
	C1040.593140,229.505219 1038.588745,225.203857 1036.092041,221.195633 
	C1039.350220,223.236130 1042.648926,225.628021 1046.088867,228.321167 
z"/>
<path fill="#3AA3E4" opacity="1.000000" stroke="none" 
	d="
M666.939758,1216.868530 
	C670.675171,1213.558960 674.665283,1214.583862 678.839722,1216.529541 
	C675.668396,1216.926880 672.346252,1216.973022 668.278076,1216.998291 
	C667.334595,1216.940918 667.137146,1216.904663 666.939758,1216.868530 
z"/>
<path fill="#3AA4E4" opacity="1.000000" stroke="none" 
	d="
M603.460815,1216.940186 
	C606.723938,1213.486084 610.709534,1214.639160 614.594116,1216.581299 
	C614.271790,1217.013184 614.073730,1217.045898 613.875610,1217.078613 
	C610.554504,1217.052612 607.233337,1217.026489 603.460815,1216.940186 
z"/>
<path fill="#3AA4E4" opacity="1.000000" stroke="none" 
	d="
M678.539062,65.059959 
	C675.263489,68.493965 671.286560,67.407715 667.408447,65.387177 
	C667.732849,64.972374 667.927917,64.946480 668.123047,64.920578 
	C671.444580,64.947037 674.766113,64.973495 678.539062,65.059959 
z"/>
<path fill="#3AA4E4" opacity="1.000000" stroke="none" 
	d="
M1053.093994,235.541733 
	C1050.308350,234.300323 1044.775635,235.589142 1046.400879,229.145706 
	C1048.755737,230.975311 1050.896851,233.078461 1053.093994,235.541733 
z"/>
<path fill="#3AA4E4" opacity="1.000000" stroke="none" 
	d="
M228.905975,1046.458252 
	C231.691177,1047.700195 237.224609,1046.410400 235.599182,1052.854248 
	C233.244232,1051.024658 231.103165,1048.921509 228.905975,1046.458252 
z"/>
<path fill="#3AA4E4" opacity="1.000000" stroke="none" 
	d="
M184.045593,993.428772 
	C185.610138,994.871277 187.273117,996.627380 188.933197,998.749939 
	C186.624435,997.957764 183.229752,997.768921 184.045593,993.428772 
z"/>
<path fill="#3AA4E4" opacity="1.000000" stroke="none" 
	d="
M1097.953857,288.570953 
	C1096.389648,287.128815 1094.726807,285.372620 1093.066650,283.249939 
	C1095.382324,284.035400 1098.759888,284.239105 1097.953857,288.570953 
z"/>
<path fill="#3AA4E4" opacity="1.000000" stroke="none" 
	d="
M563.398193,1212.937256 
	C565.125122,1209.928833 567.099487,1209.981567 568.959106,1213.521729 
	C567.256470,1213.589844 565.521667,1213.292969 563.398193,1212.937256 
z"/>
<path fill="#3AA3E4" opacity="1.000000" stroke="none" 
	d="
M713.388794,1213.817871 
	C713.911316,1209.883057 716.126892,1210.378906 718.862305,1212.548096 
	C717.250061,1213.168701 715.509583,1213.458496 713.388794,1213.817871 
z"/>
<path fill="#3AA4E4" opacity="1.000000" stroke="none" 
	d="
M718.601807,69.062828 
	C716.874878,72.070450 714.900391,72.020004 713.040894,68.478355 
	C714.743591,68.410133 716.478333,68.706993 718.601807,69.062828 
z"/>
<path fill="#3AA4E4" opacity="1.000000" stroke="none" 
	d="
M710.600159,68.065643 
	C708.869446,70.908203 706.877380,71.147957 705.036255,67.458649 
	C706.741394,67.396584 708.475769,67.701347 710.600159,68.065643 
z"/>
<path fill="#3AA4E4" opacity="1.000000" stroke="none" 
	d="
M235.092514,228.995819 
	C236.977310,232.075729 236.691254,234.040863 232.165771,233.103241 
	C232.892288,231.630264 233.847916,230.383652 235.092514,228.995819 
z"/>
<path fill="#3CAAEB" opacity="1.000000" stroke="none" 
	d="
M667.945312,64.567825 
	C667.927917,64.946480 667.732849,64.972374 667.244446,65.036743 
	C665.831604,64.896126 664.711975,64.717026 663.317139,64.336876 
	C664.617126,64.162247 666.192383,64.188667 667.945312,64.567825 
z"/>
<path fill="#3CAAEB" opacity="1.000000" stroke="none" 
	d="
M614.052979,1217.432251 
	C614.073730,1217.045898 614.271790,1217.013184 614.766602,1216.925903 
	C616.178284,1217.068237 617.293274,1217.265259 618.682373,1217.663208 
	C617.381104,1217.838135 615.805786,1217.812012 614.052979,1217.432251 
z"/>
<path fill="#3CAAEB" opacity="1.000000" stroke="none" 
	d="
M666.596436,1216.904297 
	C667.137146,1216.904663 667.334595,1216.940918 667.828735,1217.027954 
	C666.691711,1217.378540 665.258057,1217.678467 663.428955,1217.921387 
	C664.106750,1217.556274 665.179871,1217.248169 666.596436,1216.904297 
z"/>
<path fill="#3CAAEB" opacity="1.000000" stroke="none" 
	d="
M618.572021,64.078430 
	C617.516541,64.418877 616.065002,64.702049 614.229980,64.953781 
	C615.289612,64.621948 616.732849,64.321556 618.572021,64.078430 
z"/>
<path fill="#3AA4E4" opacity="1.000000" stroke="none" 
	d="
M986.008911,178.614990 
	C985.157898,178.462006 984.189758,178.001434 983.149719,177.199951 
	C984.015808,177.341843 984.953796,177.824615 986.008911,178.614990 
z"/>
<path fill="#3AA3E4" opacity="1.000000" stroke="none" 
	d="
M983.402588,1105.079590 
	C983.858276,1104.451782 984.637329,1103.763184 985.771667,1103.076172 
	C985.326660,1103.724854 984.526367,1104.371826 983.402588,1105.079590 
z"/>
<path fill="#3AA3E4" opacity="1.000000" stroke="none" 
	d="
M1046.785889,1053.181885 
	C1047.040039,1052.542236 1047.546387,1051.829834 1048.372070,1051.073242 
	C1048.140259,1051.722534 1047.589111,1052.415894 1046.785889,1053.181885 
z"/>
<path fill="#3DA9EB" opacity="1.000000" stroke="none" 
	d="
M1217.900146,666.489014 
	C1217.699219,665.745789 1217.589111,664.630493 1217.672363,663.279053 
	C1217.907349,664.067505 1217.949219,665.092224 1217.900146,666.489014 
z"/>
<path fill="#3DA9EB" opacity="1.000000" stroke="none" 
	d="
M64.072433,663.413208 
	C64.283028,664.152710 64.431465,665.274353 64.384338,666.623779 
	C64.129272,665.832825 64.069771,664.814026 64.072433,663.413208 
z"/>
<path fill="#3DA9EB" opacity="1.000000" stroke="none" 
	d="
M1217.927734,618.585815 
	C1217.716919,617.846436 1217.568481,616.725281 1217.615723,615.376343 
	C1217.870850,616.167053 1217.930298,617.185486 1217.927734,618.585815 
z"/>
<path fill="#3DA9EB" opacity="1.000000" stroke="none" 
	d="
M64.126175,615.504272 
	C64.311760,615.971130 64.404335,616.779114 64.302505,617.777466 
	C64.083138,617.260376 64.058151,616.552856 64.126175,615.504272 
z"/>
<path fill="#FFFFFF" opacity="1.000000" stroke="none" 
	d="
M393.148743,431.029419 
	C393.315063,430.970612 393.481384,430.911835 394.311035,430.751221 
	C395.807312,430.666870 396.640289,430.699646 397.473267,430.699646 
	C559.468079,430.702057 721.462952,430.702667 883.457764,430.694611 
	C884.954163,430.694519 886.450562,430.578125 887.946899,430.516022 
	C888.077637,431.617523 888.408142,432.737122 888.310242,433.817932 
	C883.831116,483.240234 879.359314,532.663330 874.790039,582.077332 
	C869.960083,634.310181 864.986145,686.529785 860.162292,738.763184 
	C855.644592,787.680664 851.245117,836.609070 846.784790,885.531860 
	C845.469238,899.960266 844.025269,914.377869 842.859436,928.818176 
	C842.562256,932.499939 841.265198,934.130798 837.507507,935.134583 
	C773.713379,952.175171 709.980835,969.446289 646.184021,986.476807 
	C642.881714,987.358398 638.926758,987.292847 635.611877,986.408203 
	C571.813843,969.381714 508.075104,952.133118 444.284210,935.079651 
	C440.782135,934.143494 439.479279,932.592712 439.171295,929.107727 
	C435.814117,891.121216 432.382233,853.141174 428.874207,815.168213 
	C424.722809,770.231201 420.436798,725.306702 416.284058,680.369751 
	C412.774841,642.396118 409.415771,604.408630 405.910828,566.434509 
	C402.421326,528.628296 398.829834,490.831482 395.291260,453.029755 
	C394.794525,447.723480 394.344666,442.412781 393.778198,436.325745 
	C393.505127,434.041351 393.326935,432.535400 393.148743,431.029419 
M491.846863,587.785034 
	C491.968964,588.530457 492.091064,589.275940 492.162933,590.808167 
	C493.362915,591.733276 494.562683,593.460083 495.762878,593.460388 
	C508.842102,593.463257 521.921448,593.195862 535.924866,593.171753 
	C572.894531,593.171753 609.864197,593.171753 647.120300,593.171753 
	C646.366516,593.516357 645.806580,593.790161 645.233276,594.031982 
	C597.430298,614.190002 549.634644,634.365540 501.799927,654.447998 
	C499.123993,655.571411 497.994568,656.744873 498.300385,659.900391 
	C499.135010,668.513306 499.482269,677.172791 500.064362,685.810974 
	C500.755035,696.060852 501.489319,706.307800 502.242126,717.091919 
	C573.660217,717.091919 644.682129,717.091919 715.898010,717.091919 
	C715.898010,718.477051 715.943970,719.294434 715.891357,720.105408 
	C714.294861,744.696655 712.738770,769.290955 710.951721,793.868347 
	C710.851318,795.248291 709.072510,797.245361 707.677185,797.680786 
	C686.887390,804.168518 666.042297,810.480774 645.168518,816.694336 
	C643.369446,817.229858 641.159607,817.206604 639.336609,816.715393 
	C618.307739,811.049377 597.334656,805.175842 576.295227,799.550110 
	C573.334961,798.758545 572.310852,797.402954 572.129822,794.473572 
	C571.523865,784.671387 570.769958,774.875916 569.889893,765.094238 
	C569.466492,760.388245 568.633850,755.719116 567.077881,750.792786 
	C547.206848,750.792786 527.335815,750.792786 507.179413,750.792786 
	C507.535126,753.064758 507.765076,754.533630 507.861694,756.905334 
	C510.167358,784.623413 512.562195,812.334656 514.670593,840.067749 
	C514.946960,843.702942 516.237610,845.118713 519.573059,846.080627 
	C557.450562,857.003967 595.317688,867.966492 633.102112,879.205933 
	C638.487854,880.807983 643.263733,880.672668 648.584778,879.174255 
	C687.170227,868.309021 725.822571,857.681580 764.457703,846.993042 
	C766.749756,846.358826 768.683472,845.870667 768.923462,842.691467 
	C770.490479,821.931824 772.257629,801.187256 773.978210,780.439270 
	C776.538391,749.566772 779.123779,718.696411 781.677856,687.823425 
	C782.539429,677.409241 783.338379,666.989929 784.209473,656.024109 
	C736.536682,656.024109 689.360840,656.024109 642.184937,656.024109 
	C654.509216,649.815002 666.994812,644.502197 679.489990,639.211731 
	C714.880493,624.226990 750.285461,609.276306 785.635498,594.196472 
	C787.339050,593.469788 789.728271,591.734375 789.847717,590.305603 
	C791.442871,571.222290 792.689758,552.109741 793.758423,532.143250 
	C778.173279,532.097839 762.588135,532.052368 746.078003,531.840393 
	C658.746033,531.840393 571.414124,531.840393 483.454071,531.840393 
	C486.166809,549.874390 488.735565,566.950928 491.250854,584.649353 
	C491.479736,585.443481 491.708618,586.237549 491.846863,587.785034 
z"/>
<path fill="#FEFEFF" opacity="1.000000" stroke="none" 
	d="
M711.919617,386.881866 
	C711.919617,377.099915 711.919617,367.317993 711.919617,356.990631 
	C721.446594,356.990631 730.988403,356.990631 742.184814,356.990631 
	C738.955750,353.777039 736.811401,351.614624 734.636353,349.483459 
	C727.852905,342.837036 721.013245,336.246979 714.308289,329.522400 
	C713.098755,328.309296 711.662476,326.580078 711.626831,325.058716 
	C711.389038,314.927673 711.503479,304.788391 711.503479,294.333618 
	C737.012085,294.333618 762.092285,294.333618 787.581787,294.333618 
	C787.581787,304.897400 787.581787,315.596924 787.581787,326.755371 
	C777.971497,326.755371 768.398499,326.755371 757.860046,326.755371 
	C763.881897,332.822021 768.659180,338.898041 774.632935,343.379120 
	C785.654724,351.646820 790.396790,361.858612 788.063965,375.494202 
	C787.453918,379.059692 787.752319,382.780609 786.852417,386.647614 
	C761.354126,386.870667 736.636841,386.876251 711.919617,386.881866 
z"/>
<path fill="#FDFEFF" opacity="1.000000" stroke="none" 
	d="
M603.992554,386.984283 
	C603.691528,383.582642 603.203186,380.185059 603.129761,376.778534 
	C602.990540,370.325317 603.089355,363.866943 603.089355,356.934601 
	C613.083801,356.934601 622.635986,356.934601 632.188110,356.934601 
	C632.503113,356.462311 632.818176,355.989990 633.133179,355.517700 
	C629.171814,351.877808 625.146729,348.304352 621.264648,344.581818 
	C615.976501,339.510986 610.731506,334.390594 605.621643,329.141846 
	C604.455566,327.944092 603.235413,326.149414 603.201782,324.604248 
	C602.985107,314.642029 603.090942,304.672821 603.090942,294.358704 
	C628.636597,294.358704 653.846191,294.358704 679.380798,294.358704 
	C679.380798,304.977051 679.380798,315.552032 679.380798,326.577332 
	C669.791016,326.577332 660.211975,326.577332 649.469177,326.577332 
	C651.056641,328.413879 651.870178,329.494965 652.822754,330.435181 
	C660.645020,338.156036 668.404175,345.944550 676.385437,353.498199 
	C678.908752,355.886383 679.896301,358.353455 679.771484,361.791687 
	C679.476013,369.931763 679.536865,378.084717 678.774414,386.547668 
	C653.394287,386.903320 628.693420,386.943787 603.992554,386.984283 
z"/>
<path fill="#FEFEFF" opacity="1.000000" stroke="none" 
	d="
M569.953064,356.638977 
	C570.076477,366.466217 570.199951,376.293427 569.725952,386.488586 
	C544.418762,386.903778 519.708984,386.950989 494.999268,386.998199 
	C494.672516,386.108337 494.061676,385.218933 494.060211,384.328522 
	C494.010620,354.500641 494.019073,324.672668 494.019073,294.427216 
	C519.406982,294.427216 544.630981,294.427216 570.181641,294.427216 
	C570.181641,305.072968 570.181641,315.806244 570.181641,326.916260 
	C556.208862,326.916260 542.563416,326.916260 528.173218,326.975891 
	C527.299377,327.353394 527.170227,327.671265 527.041077,327.989105 
	C526.994019,336.685120 526.946899,345.381104 526.989258,354.971619 
	C527.943054,356.158051 528.807190,356.702728 529.672058,356.703979 
	C543.098999,356.723816 556.526062,356.673279 569.953064,356.638977 
z"/>
<path fill="#1F8FD1" opacity="1.000000" stroke="none" 
	d="
M887.746826,430.208405 
	C886.450562,430.578125 884.954163,430.694519 883.457764,430.694611 
	C721.462952,430.702667 559.468079,430.702057 397.473267,430.699646 
	C396.640289,430.699646 395.807312,430.666870 394.513855,430.581299 
	C396.356964,430.009399 398.660370,429.065887 400.964203,429.064758 
	C542.083618,428.994598 683.203003,429.001648 824.322449,429.001617 
	C843.649292,429.001617 862.976257,428.978882 882.302917,429.041199 
	C884.051697,429.046844 885.798828,429.601227 887.746826,430.208405 
z"/>
<path fill="#208FD2" opacity="1.000000" stroke="none" 
	d="
M569.765259,356.317444 
	C556.526062,356.673279 543.098999,356.723816 529.672058,356.703979 
	C528.807190,356.702728 527.943054,356.158051 527.059082,355.436218 
	C539.492798,355.005432 551.946289,354.966339 564.398987,355.047791 
	C566.127197,355.059082 567.851379,355.665161 569.765259,356.317444 
z"/>
<path fill="#198BD0" opacity="1.000000" stroke="none" 
	d="
M495.332520,387.244690 
	C519.708984,386.950989 544.418762,386.903778 569.604309,386.869202 
	C568.677979,387.252960 567.276672,387.943329 565.873474,387.947479 
	C543.443054,388.013702 521.012451,387.998627 498.581909,387.969788 
	C497.609650,387.968536 496.637787,387.657745 495.332520,387.244690 
z"/>
<path fill="#198BD0" opacity="1.000000" stroke="none" 
	d="
M604.324707,387.233521 
	C628.693420,386.943787 653.394287,386.903320 678.565369,386.899384 
	C677.628357,387.289185 676.221924,387.946350 674.813721,387.950287 
	C652.398865,388.013092 629.983826,387.998688 607.568787,387.969208 
	C606.597961,387.967926 605.627563,387.652100 604.324707,387.233521 
z"/>
<path fill="#198BD0" opacity="1.000000" stroke="none" 
	d="
M712.252563,387.144348 
	C736.636841,386.876251 761.354126,386.870667 786.536011,386.931702 
	C785.750732,387.329834 784.501648,387.947266 783.250916,387.950378 
	C760.660156,388.006958 738.069092,387.996521 715.478210,387.963074 
	C714.513733,387.961670 713.549744,387.600433 712.252563,387.144348 
z"/>
<path fill="#1F8FD1" opacity="1.000000" stroke="none" 
	d="
M392.890076,431.298431 
	C393.326935,432.535400 393.505127,434.041351 393.592255,436.010071 
	C393.211243,434.837677 392.921295,433.202545 392.890076,431.298431 
z"/>
<path fill="#208FD2" opacity="1.000000" stroke="none" 
	d="
M527.233215,327.869659 
	C527.170227,327.671265 527.299377,327.353394 527.707825,327.042084 
	C527.853577,327.325500 527.666321,327.559357 527.233215,327.869659 
z"/>
<path fill="#379AD6" opacity="1.000000" stroke="none" 
	d="
M567.986511,751.033264 
	C568.633850,755.719116 569.466492,760.388245 569.889893,765.094238 
	C570.769958,774.875916 571.523865,784.671387 572.129822,794.473572 
	C572.310852,797.402954 573.334961,798.758545 576.295227,799.550110 
	C597.334656,805.175842 618.307739,811.049377 639.336609,816.715393 
	C641.159607,817.206604 643.369446,817.229858 645.168518,816.694336 
	C666.042297,810.480774 686.887390,804.168518 707.677185,797.680786 
	C709.072510,797.245361 710.851318,795.248291 710.951721,793.868347 
	C712.738770,769.290955 714.294861,744.696655 715.891357,720.105408 
	C715.943970,719.294434 715.898010,718.477051 715.898010,717.091919 
	C644.682129,717.091919 573.660217,717.091919 502.242126,717.091919 
	C501.489319,706.307800 500.755035,696.060852 500.064362,685.810974 
	C499.482269,677.172791 499.135010,668.513306 498.300385,659.900391 
	C497.994568,656.744873 499.123993,655.571411 501.799927,654.447998 
	C549.634644,634.365540 597.430298,614.190002 645.233276,594.031982 
	C645.806580,593.790161 646.366516,593.516357 647.120300,593.171753 
	C609.864197,593.171753 572.894531,593.171753 535.130005,592.839294 
	C522.944824,592.335205 511.550842,592.277405 500.166992,591.907532 
	C497.498108,591.820862 494.863525,590.678223 492.213165,590.021362 
	C492.091064,589.275940 491.968964,588.530457 492.100708,587.204224 
	C492.004456,585.758179 491.654358,584.892822 491.304291,584.027527 
	C488.735565,566.950928 486.166809,549.874390 483.454071,531.840393 
	C571.414124,531.840393 658.746033,531.840393 746.873657,532.169922 
	C749.474915,532.668091 751.280151,532.977478 753.086243,532.982849 
	C766.731873,533.023682 780.377625,533.004761 794.023376,533.004517 
	C792.689758,552.109741 791.442871,571.222290 789.847717,590.305603 
	C789.728271,591.734375 787.339050,593.469788 785.635498,594.196472 
	C750.285461,609.276306 714.880493,624.226990 679.489990,639.211731 
	C666.994812,644.502197 654.509216,649.815002 642.184937,656.024109 
	C689.360840,656.024109 736.536682,656.024109 784.209473,656.024109 
	C783.338379,666.989929 782.539429,677.409241 781.677856,687.823425 
	C779.123779,718.696411 776.538391,749.566772 773.978210,780.439270 
	C772.257629,801.187256 770.490479,821.931824 768.923462,842.691467 
	C768.683472,845.870667 766.749756,846.358826 764.457703,846.993042 
	C725.822571,857.681580 687.170227,868.309021 648.584778,879.174255 
	C643.263733,880.672668 638.487854,880.807983 633.102112,879.205933 
	C595.317688,867.966492 557.450562,857.003967 519.573059,846.080627 
	C516.237610,845.118713 514.946960,843.702942 514.670593,840.067749 
	C512.562195,812.334656 510.167358,784.623413 508.168335,756.165527 
	C509.051544,752.232849 511.281860,751.948975 514.011658,751.962158 
	C530.091248,752.040039 546.171570,752.032288 562.251221,751.957214 
	C564.164368,751.948303 566.074829,751.355469 567.986511,751.033264 
z"/>
<path fill="#2591D2" opacity="1.000000" stroke="none" 
	d="
M492.188049,590.414795 
	C494.863525,590.678223 497.498108,591.820862 500.166992,591.907532 
	C511.550842,592.277405 522.944824,592.335205 534.667908,592.754456 
	C521.921448,593.195862 508.842102,593.463257 495.762878,593.460388 
	C494.562683,593.460083 493.362915,591.733276 492.188049,590.414795 
z"/>
<path fill="#198BD0" opacity="1.000000" stroke="none" 
	d="
M567.532227,750.913025 
	C566.074829,751.355469 564.164368,751.948303 562.251221,751.957214 
	C546.171570,752.032288 530.091248,752.040039 514.011658,751.962158 
	C511.281860,751.948975 509.051544,752.232849 508.234985,755.714111 
	C507.765076,754.533630 507.535126,753.064758 507.179413,750.792786 
	C527.335815,750.792786 547.206848,750.792786 567.532227,750.913025 
z"/>
<path fill="#1E8DD1" opacity="1.000000" stroke="none" 
	d="
M793.890869,532.573853 
	C780.377625,533.004761 766.731873,533.023682 753.086243,532.982849 
	C751.280151,532.977478 749.474915,532.668091 747.336182,532.253174 
	C762.588135,532.052368 778.173279,532.097839 793.890869,532.573853 
z"/>
<path fill="#2591D2" opacity="1.000000" stroke="none" 
	d="
M491.277588,584.338440 
	C491.654358,584.892822 492.004456,585.758179 492.146057,586.827576 
	C491.708618,586.237549 491.479736,585.443481 491.277588,584.338440 
z"/>
</svg>