<svg version="1.1" id="Layer_1" xmlns="http://www.w3.org/2000/svg" xmlns:xlink="http://www.w3.org/1999/xlink" x="0px" y="0px"
	 width="100%" viewBox="0 0 500 500" enable-background="new 0 0 500 500" xml:space="preserve">
<path fill="#000000" opacity="1.000000" stroke="none" 
	d="
M270.000000,501.000000 
	C180.000015,501.000000 90.500046,501.000000 1.000048,501.000000 
	C1.000032,334.333405 1.000032,167.666794 1.000016,1.000138 
	C167.666565,1.000092 334.333130,1.000092 500.999756,1.000046 
	C500.999847,167.666519 500.999847,334.333038 500.999939,500.999786 
	C424.166656,501.000000 347.333344,501.000000 270.000000,501.000000 
M302.003113,246.975128 
	C302.003113,246.975128 301.940369,246.940033 301.297699,247.198517 
	C298.868927,249.485703 296.440155,251.772888 293.331512,254.086563 
	C292.880798,254.130402 292.430054,254.174225 291.253357,254.052109 
	C290.515045,254.104034 289.776703,254.155960 288.372955,254.093887 
	C287.925385,254.048981 287.477814,254.004074 286.705078,253.316254 
	C283.783905,251.149979 280.862762,248.983719 277.957855,245.999008 
	C277.743042,244.443420 277.528229,242.887817 277.267181,240.997543 
	C288.058624,240.997543 298.809601,241.037659 309.559509,240.949921 
	C311.003815,240.938126 312.442810,240.281693 314.386444,239.491928 
	C313.551056,235.996231 312.715668,232.500534 311.759369,228.337234 
	C306.464111,220.769714 299.705078,216.076477 289.156830,217.073288 
	C287.851837,216.936462 286.481689,216.480057 285.255493,216.729904 
	C282.772644,217.235779 280.367767,218.124420 277.223419,218.968430 
	C270.413666,222.187714 267.531708,227.798965 265.628845,234.979309 
	C262.925354,245.180756 269.910126,257.404449 279.485016,262.226379 
	C288.445953,266.739136 301.122040,264.027466 308.738617,255.805420 
	C309.206451,254.224640 309.674255,252.643875 310.765594,250.645157 
	C311.078644,249.194016 311.391693,247.742859 311.734741,246.152710 
	C308.572205,246.152710 305.821259,246.152710 302.525604,246.101303 
	C302.327942,246.389069 302.130280,246.676819 302.003113,246.975128 
M69.837616,261.436951 
	C71.259033,261.571655 72.680443,261.706360 74.757751,262.254974 
	C76.502892,262.535248 78.248032,262.815521 80.471352,263.766113 
	C89.232635,264.848816 95.657608,261.579681 101.252052,254.587891 
	C109.764366,243.949402 107.291153,232.895248 100.234650,223.780228 
	C94.678459,216.603165 86.834900,215.779953 78.469246,215.959656 
	C67.829842,216.188171 58.140965,225.335068 57.217731,236.254837 
	C57.137505,253.230042 57.100613,270.205688 56.930668,287.179993 
	C56.904980,289.745941 57.826691,290.452576 60.851112,290.023285 
	C61.579941,289.973114 62.308769,289.922943 63.716831,289.963043 
	C65.136963,289.997131 66.557091,290.031219 68.805252,289.720947 
	C68.918381,280.207672 69.031509,270.694427 69.837616,261.436951 
M112.487587,261.887390 
	C112.487587,261.887390 112.951088,261.977966 113.381706,262.686646 
	C122.456673,263.600739 123.057549,263.085419 123.009537,254.169922 
	C122.976738,248.082016 122.884796,241.994431 122.971970,235.206619 
	C125.112740,230.766724 128.142654,227.256866 133.253296,226.408966 
	C135.744965,225.995560 138.331406,226.153442 141.162979,226.685516 
	C144.692139,229.372620 147.691620,232.080353 148.595093,237.043457 
	C149.504807,242.040863 154.313171,239.381073 157.426208,239.825256 
	C158.476959,239.975174 159.694931,238.953140 160.836472,238.466721 
	C159.573303,235.576569 158.310135,232.686401 156.982635,229.072876 
	C156.083954,223.977051 152.387268,221.622513 147.768356,219.350830 
	C146.898407,218.880630 146.028442,218.410416 144.754227,217.289627 
	C138.164551,214.157028 131.520569,215.767563 124.260216,217.194336 
	C123.489227,218.402054 122.718231,219.609756 121.362015,221.166901 
	C117.189400,225.510986 111.319275,228.671463 111.026779,236.784744 
	C111.030853,242.853668 110.946991,248.924606 111.084618,254.990494 
	C111.135796,257.246552 111.705482,259.490845 112.487587,261.887390 
M386.504791,217.142059 
	C386.310455,217.414825 386.116119,217.687576 385.069580,217.999451 
	C382.804016,218.039505 380.538483,218.079559 377.871399,217.387985 
	C377.564148,218.657318 376.994019,219.925751 376.989594,221.196152 
	C376.933746,237.112991 376.959808,253.030121 376.148743,269.106567 
	C371.654480,269.511566 367.160217,269.916565 362.601074,270.327423 
	C360.987793,278.133820 368.223602,282.333618 373.991882,282.881165 
	C381.032715,283.549500 388.336517,279.448486 388.755371,270.638611 
	C388.828339,253.585617 388.927124,236.532547 388.890991,219.479797 
	C388.889343,218.702408 387.671234,217.927612 386.504791,217.142059 
M443.973969,235.300186 
	C442.409332,229.887436 440.041779,225.009354 434.723846,221.248627 
	C430.738831,219.523361 426.881683,217.271378 422.722931,216.261749 
	C420.040771,215.610596 416.916229,216.781723 413.317322,216.984421 
	C412.275909,216.955658 410.992920,216.516037 410.231689,216.963715 
	C404.593384,220.279480 398.882446,223.806061 396.354340,230.162155 
	C393.823212,236.525909 394.058044,243.023346 398.166199,249.632553 
	C398.495422,250.401733 398.824677,251.170929 399.023590,252.601807 
	C399.715912,253.856796 400.408203,255.111786 401.253265,256.727631 
	C401.253265,256.727631 401.609131,256.891754 401.910187,257.433563 
	C404.177246,258.955872 406.276398,260.868591 408.742126,261.928864 
	C416.884918,265.430298 425.004639,264.787781 433.342987,261.689697 
	C435.062897,262.124481 436.760925,262.745880 438.507812,262.951050 
	C441.237701,263.271698 444.706848,263.187378 444.763641,259.793457 
	C444.895905,251.890152 444.207916,243.973114 443.973969,235.300186 
M358.716461,221.287628 
	C356.844421,219.903381 354.972412,218.519119 352.299194,217.010468 
	C338.912354,210.405533 323.229614,221.768326 320.227966,233.132584 
	C319.842712,241.803116 319.457489,250.473663 319.246399,259.863251 
	C321.926605,264.983795 325.987976,263.340790 330.761383,261.647552 
	C330.852020,258.838165 330.912750,256.027435 331.039520,253.219681 
	C331.298492,247.483398 331.592957,241.748718 332.024628,235.304794 
	C334.691071,232.486160 337.357513,229.667526 340.806335,226.978287 
	C344.188568,227.286728 347.570831,227.595169 351.594818,228.167633 
	C353.686371,231.008667 356.671906,233.570404 357.666473,236.754120 
	C359.283875,241.931778 362.929993,239.563019 365.756104,239.797287 
	C369.268555,240.088455 369.000671,237.365631 368.937714,234.236755 
	C367.414246,228.702988 364.545410,224.245926 358.716461,221.287628 
M170.326523,225.272385 
	C164.653366,233.971878 164.195404,243.477737 169.192825,250.604904 
	C169.521667,251.062607 169.850510,251.520309 170.042358,252.716919 
	C170.995010,254.203110 171.947647,255.689285 173.204971,257.786926 
	C180.841049,265.645386 190.419922,265.526825 199.651917,262.748047 
	C204.789474,261.201660 209.175156,262.604004 214.686600,262.589783 
	C217.118652,253.612411 216.517670,244.710419 214.009735,235.078506 
	C213.954803,234.045609 213.899872,233.012695 213.734634,231.290268 
	C211.195084,228.176407 208.655533,225.062546 205.846359,221.360672 
	C204.615707,220.544434 203.385056,219.728210 202.080643,218.091827 
	C191.110016,213.090591 179.140823,213.973709 170.997864,224.999725 
	C170.997864,224.999725 170.952011,224.937408 170.326523,225.272385 
M223.500351,262.925385 
	C224.654678,262.978271 225.824356,262.929779 226.960678,263.101624 
	C231.835205,263.838898 233.437119,261.707184 233.005676,256.971466 
	C232.677505,253.369019 233.051559,249.702606 233.661972,245.804260 
	C234.869034,244.341705 236.052414,243.554245 237.147400,246.629257 
	C239.887299,250.047806 242.611481,253.479111 245.370789,256.881927 
	C249.523636,262.003296 255.263123,263.560577 262.792542,261.014587 
	C257.697540,255.118149 252.857666,249.516968 247.757172,243.320511 
	C242.993362,238.505737 242.862427,237.662125 247.648682,232.999893 
	C252.476898,228.296768 257.578979,223.874786 263.106537,218.832001 
	C254.332901,215.840683 251.061859,216.435211 246.276855,221.231720 
	C242.220551,224.795303 238.164246,228.358887 233.734726,231.167847 
	C233.499969,229.577789 233.077026,227.989441 233.062439,226.397369 
	C232.992355,218.737076 232.995270,211.075500 233.056427,203.415039 
	C233.074432,201.157684 232.971085,199.289001 229.157074,200.099060 
	C227.493515,200.455673 225.829941,200.812286 223.433945,200.872101 
	C222.942947,201.957794 222.030762,203.040955 222.024277,204.129547 
	C221.930511,219.862015 221.966461,235.595200 221.943741,251.328186 
	C221.941605,252.805222 221.538910,254.306091 221.701477,255.753281 
	C221.948593,257.953247 222.527817,260.115906 223.500351,262.925385 
M347.545990,264.101990 
	C346.712036,264.627899 345.178711,265.123932 345.154785,265.684479 
	C344.963104,270.168915 344.143158,274.902557 345.235321,279.113861 
	C348.464600,291.565979 356.365479,300.173645 369.236237,302.780792 
	C380.826019,305.128479 393.155090,299.182983 400.763977,287.930817 
	C394.127563,282.883545 392.478149,282.966736 386.887421,288.630768 
	C381.780609,293.804535 369.807709,294.104950 363.553314,290.186859 
	C356.423462,285.720337 355.056610,278.999237 355.147278,271.758942 
	C355.211365,266.640778 353.642822,264.010651 347.545990,264.101990 
M342.095306,233.150101 
	C338.547699,234.721420 336.731018,237.873169 338.419769,241.016724 
	C339.396057,242.834106 343.096039,244.041870 345.556885,244.020081 
	C349.895782,243.981659 351.290588,240.253326 350.771301,236.681671 
	C350.117981,232.188110 346.088928,233.141586 342.095306,233.150101 
z"/>
<path fill="#2C71C7" opacity="1.000000" stroke="none" 
	d="
M79.993164,263.095764 
	C78.248032,262.815521 76.502892,262.535248 74.336029,261.798096 
	C73.596985,260.914368 73.279671,260.487518 72.765869,259.766693 
	C69.819626,257.537170 67.433708,257.133392 65.847420,261.254517 
	C65.461960,262.323547 65.295403,263.155457 65.031967,264.393799 
	C64.614876,271.331360 64.294662,277.862488 63.944908,284.996063 
	C62.498306,284.996063 60.780941,284.996063 59.013512,284.606323 
	C58.903355,283.165833 58.843254,282.115021 58.819908,280.717407 
	C58.899570,279.907471 58.942482,279.444427 59.348114,278.833618 
	C60.134605,277.346924 60.912930,276.011139 60.924767,274.668579 
	C61.003262,265.766876 60.917423,256.863708 60.899788,247.524872 
	C60.797283,244.775101 60.737770,242.456848 60.552555,240.148712 
	C59.852837,231.428757 65.403221,221.693726 72.532173,219.209335 
	C82.687943,215.670135 94.211388,219.101166 100.307671,228.045471 
	C105.972748,236.357162 105.214020,251.994141 93.002426,255.610687 
	C92.984634,254.474884 92.969841,253.717178 93.025589,252.601624 
	C93.396751,250.822739 93.697350,249.401703 93.997253,247.993408 
	C93.996552,248.006180 93.971176,247.994202 94.367554,247.981842 
	C95.692467,247.377579 97.338058,246.884583 97.435524,246.178024 
	C98.179283,240.785889 99.632591,234.796539 95.606392,230.429703 
	C86.146851,220.169861 73.738297,221.596359 66.797447,233.286926 
	C64.712936,236.797913 65.071144,243.892685 67.336411,247.379990 
	C71.272362,253.439194 77.702354,257.648193 86.009964,256.292664 
	C86.025681,257.812744 86.043106,258.916626 86.046890,260.027069 
	C86.033249,260.033661 86.013557,260.056702 85.715286,260.116272 
	C84.939255,260.771912 84.461502,261.368042 83.622528,261.976440 
	C82.171928,262.357727 81.082542,262.726746 79.993164,263.095764 
z"/>
<path fill="#D9661C" opacity="1.000000" stroke="none" 
	d="
M347.975647,264.066162 
	C353.642822,264.010651 355.211365,266.640778 355.147278,271.758942 
	C355.056610,278.999237 356.423462,285.720337 363.553314,290.186859 
	C369.807709,294.104950 381.780609,293.804535 386.887421,288.630768 
	C392.478149,282.966736 394.127563,282.883545 400.763977,287.930817 
	C393.155090,299.182983 380.826019,305.128479 369.236237,302.780792 
	C356.365479,300.173645 348.464600,291.565979 345.235321,279.113861 
	C344.143158,274.902557 344.963104,270.168915 345.154785,265.684479 
	C345.178711,265.123932 346.712036,264.627899 347.975647,264.066162 
z"/>
<path fill="#2C71C7" opacity="1.000000" stroke="none" 
	d="
M234.107925,231.922470 
	C238.164246,228.358887 242.220551,224.795303 246.995056,221.101990 
	C249.731125,220.972244 251.749008,220.972244 253.766891,220.972244 
	C252.179153,224.008072 250.564819,226.309174 248.352844,227.502258 
	C240.104874,231.950943 238.621735,239.896149 245.141891,246.355713 
	C245.125732,246.520889 245.123810,246.852783 245.299683,247.082397 
	C246.002197,247.521729 246.528839,247.731445 247.353516,248.101807 
	C250.125137,251.340240 252.598755,254.418015 255.347626,257.838318 
	C251.804489,259.519592 250.356125,258.808990 248.260391,256.169617 
	C245.162231,252.267746 240.894638,249.294418 237.125000,245.925720 
	C236.052414,243.554245 234.869034,244.341705 233.021606,246.053619 
	C231.902512,249.192108 231.423798,252.081238 230.604614,255.037537 
	C228.206116,255.059402 226.148071,255.014099 224.071960,254.502441 
	C224.048630,236.672119 224.043381,219.308167 224.071854,201.750656 
	C224.105576,201.557098 224.166382,201.168884 224.166382,201.168884 
	C225.829941,200.812286 227.493515,200.455673 229.658936,200.354187 
	C230.363647,200.876328 230.615707,201.083374 230.934235,201.678925 
	C230.963654,208.535873 230.866226,214.947174 231.031250,221.351715 
	C231.122589,224.896515 231.653259,228.430008 232.339844,232.001373 
	C233.165192,231.996918 233.636551,231.959686 234.107925,231.922470 
z"/>
<path fill="#3371B6" opacity="1.000000" stroke="none" 
	d="
M413.989929,217.136169 
	C416.916229,216.781723 420.040771,215.610596 422.722931,216.261749 
	C426.881683,217.271378 430.738831,219.523361 434.883362,221.933929 
	C435.706787,224.400391 436.370697,226.181564 436.705078,227.879730 
	C434.389252,226.459885 432.402924,225.123047 430.416595,223.786224 
	C429.992401,224.164673 429.568237,224.543121 429.144073,224.921555 
	C434.700714,230.124893 435.466492,236.648102 435.008545,243.502518 
	C434.685852,248.332443 434.341797,253.160950 433.635010,258.058411 
	C428.184235,259.424316 423.105774,260.721863 418.085846,261.665405 
	C419.437714,258.178802 418.267731,255.995850 415.202393,255.202820 
	C410.710052,254.040665 406.461090,252.461487 404.945709,247.710266 
	C403.624390,243.567322 403.077972,239.174469 402.258881,234.878708 
	C402.184509,234.488556 402.523651,233.913864 402.833893,233.573593 
	C404.568817,231.670731 406.115875,229.474930 408.180267,228.023972 
	C410.951935,226.075943 410.951599,224.253738 409.072784,221.589081 
	C410.763855,219.883316 412.376892,218.509735 413.989929,217.136169 
M410.519409,230.046188 
	C406.795013,233.025650 407.098022,237.211044 407.094727,241.332138 
	C407.089355,248.062378 410.872589,252.430389 417.188080,252.895630 
	C425.053528,253.475052 432.041779,249.166275 433.023865,243.131577 
	C434.112823,236.440430 431.934204,231.413818 426.406677,227.980621 
	C420.917175,224.571060 415.861053,225.809097 410.519409,230.046188 
M422.172424,222.198303 
	C425.286346,225.973206 426.359558,221.968689 428.150604,220.564285 
	C426.050812,220.388245 423.502411,216.796921 422.172424,222.198303 
z"/>
<path fill="#3D6CA2" opacity="1.000000" stroke="none" 
	d="
M58.985397,278.981354 
	C58.942482,279.444427 58.899570,279.907471 58.550327,280.401794 
	C58.160885,265.556244 58.077774,250.679489 57.994659,235.802734 
	C58.140965,225.335068 67.829842,216.188171 78.469246,215.959656 
	C86.834900,215.779953 94.678459,216.603165 100.234650,223.780228 
	C107.291153,232.895248 109.764366,243.949402 101.252052,254.587891 
	C95.657608,261.579681 89.232635,264.848816 80.232254,263.430969 
	C81.082542,262.726746 82.171928,262.357727 83.920639,261.913025 
	C85.057831,261.243774 85.535690,260.650238 86.013557,260.056702 
	C86.013557,260.056702 86.033249,260.033661 86.414856,260.024353 
	C88.866112,258.672974 90.935768,257.330872 93.005432,255.988770 
	C105.214020,251.994141 105.972748,236.357162 100.307671,228.045471 
	C94.211388,219.101166 82.687943,215.670135 72.532173,219.209335 
	C65.403221,221.693726 59.852837,231.428757 60.552555,240.148712 
	C60.737770,242.456848 60.797283,244.775101 60.551952,247.690643 
	C59.791553,249.973434 59.073555,251.649765 59.049770,253.335907 
	C58.929211,261.882996 58.988888,270.432617 58.985397,278.981354 
z"/>
<path fill="#2C71C7" opacity="1.000000" stroke="none" 
	d="
M202.154388,218.911987 
	C203.385056,219.728210 204.615707,220.544434 205.780258,221.889648 
	C207.820877,225.617203 209.927597,228.815750 212.032196,232.462006 
	C212.361328,240.131332 212.823349,247.350189 212.976242,254.575577 
	C213.072678,259.132538 210.656128,260.619720 206.248077,259.127045 
	C205.159698,258.758484 204.066574,258.403961 202.895706,257.728455 
	C201.902130,256.299988 200.988495,255.186020 200.407501,253.984497 
	C202.108917,252.783081 204.041016,251.933975 204.717346,250.494751 
	C205.790817,248.210388 208.668045,245.628021 205.065948,242.599823 
	C205.070267,241.499451 205.131470,240.764923 205.510147,239.897446 
	C210.731018,232.770294 204.458389,229.676544 200.969086,225.602951 
	C199.880676,226.107742 198.864487,226.579025 197.633820,227.018127 
	C197.419342,226.985931 197.011658,226.837814 196.973572,226.488708 
	C195.445923,224.825073 193.956345,223.510559 192.424927,222.159119 
	C192.958908,220.742859 193.475037,219.373978 194.389954,218.066772 
	C197.243973,218.389633 199.699173,218.650803 202.154388,218.911987 
z"/>
<path fill="#2C71C7" opacity="1.000000" stroke="none" 
	d="
M277.930756,218.855255 
	C280.367767,218.124420 282.772644,217.235779 285.255493,216.729904 
	C286.481689,216.480057 287.851837,216.936462 289.463318,217.452759 
	C288.836609,219.206268 287.903381,220.580322 286.632812,222.113831 
	C285.195038,222.538025 284.088806,222.781097 282.995209,223.071655 
	C279.925293,223.887314 276.151123,229.022781 276.310303,232.368744 
	C276.320984,233.033066 276.375732,233.412384 276.194794,234.004211 
	C276.078491,236.187271 276.197906,238.157791 276.196716,240.494812 
	C276.099915,242.139862 276.123749,243.418411 276.112793,245.098633 
	C277.384369,248.000900 278.690735,250.501541 279.963257,253.376190 
	C278.298798,254.493469 276.668213,255.236694 274.865326,255.688599 
	C265.311066,244.346497 265.538635,233.794357 275.291931,223.051468 
	C276.385498,221.846970 277.061249,220.263153 277.930756,218.855255 
z"/>
<path fill="#2C71C7" opacity="1.000000" stroke="none" 
	d="
M408.994751,221.921249 
	C410.951599,224.253738 410.951935,226.075943 408.180267,228.023972 
	C406.115875,229.474930 404.568817,231.670731 402.833893,233.573593 
	C402.523651,233.913864 402.184509,234.488556 402.258881,234.878708 
	C403.077972,239.174469 403.624390,243.567322 404.945709,247.710266 
	C406.461090,252.461487 410.710052,254.040665 415.202393,255.202820 
	C418.267731,255.995850 419.437714,258.178802 417.700287,261.649628 
	C415.563751,261.432922 413.239685,261.390503 412.296051,260.227814 
	C409.346283,256.593109 405.378387,257.277588 401.609131,256.891754 
	C401.609131,256.891754 401.253265,256.727631 401.352112,256.229279 
	C400.685272,254.467316 399.919586,253.203720 399.153900,251.940125 
	C398.824677,251.170929 398.495422,250.401733 398.229248,249.053375 
	C398.188385,244.225327 397.886414,239.969940 398.025330,235.729004 
	C398.254181,228.743698 402.754639,223.257004 408.994751,221.921249 
z"/>
<path fill="#3D6CA2" opacity="1.000000" stroke="none" 
	d="
M340.023956,226.848892 
	C337.357513,229.667526 334.691071,232.486160 331.575500,235.786880 
	C330.740173,237.779739 330.045288,239.285446 330.020447,240.802124 
	C329.904572,247.884552 329.973602,254.970032 329.976532,262.054413 
	C325.987976,263.340790 321.926605,264.983795 319.548523,259.373718 
	C320.253479,258.036255 320.998657,257.191101 321.005768,256.339844 
	C321.071381,248.467133 321.009583,240.593369 320.984833,232.719894 
	C323.229614,221.768326 338.912354,210.405533 352.569336,217.368164 
	C351.232361,217.828979 349.625244,217.932114 347.577637,218.023849 
	C344.097473,218.361877 341.057800,218.711304 337.644073,219.045380 
	C333.497070,221.985382 328.949280,224.344559 326.117767,228.024384 
	C320.774170,234.968842 323.355438,243.656082 322.720154,251.608551 
	C322.512451,254.208664 323.398895,256.896179 323.784973,259.543732 
	C326.055756,258.531006 327.729553,257.362152 327.892914,256.010712 
	C328.448547,251.413513 329.441101,246.542450 328.494385,242.158707 
	C326.556580,233.185471 332.338745,229.271805 338.298157,225.023865 
	C339.063904,225.688126 339.543945,226.268509 340.023956,226.848892 
z"/>
<path fill="#3371B6" opacity="1.000000" stroke="none" 
	d="
M111.152771,235.808853 
	C111.319275,228.671463 117.189400,225.510986 121.723434,221.342361 
	C124.100128,222.750061 126.236786,225.153595 128.104279,224.960037 
	C131.530167,224.604996 133.851196,222.078705 133.467804,217.998383 
	C137.672729,217.974579 141.415619,217.957397 145.158493,217.940201 
	C146.028442,218.410416 146.898407,218.880630 147.650238,219.876373 
	C146.342377,222.276993 145.152664,224.152054 143.577393,226.025436 
	C142.419540,226.033417 141.647247,226.043076 140.874954,226.052734 
	C138.331406,226.153442 135.744965,225.995560 133.253296,226.408966 
	C128.142654,227.256866 125.112740,230.766724 122.605782,235.583221 
	C121.853851,236.001343 121.468117,236.042847 121.049034,235.750336 
	C120.993416,235.193954 120.971146,234.971603 120.948967,234.598206 
	C120.949051,234.447159 120.983017,234.146957 121.098450,234.013077 
	C121.256927,233.772018 121.360870,233.642288 121.331146,233.562073 
	C121.253914,233.353745 121.117928,233.167191 121.000565,232.586700 
	C120.251526,231.162735 119.507324,230.123993 118.763115,229.085251 
	C117.459763,230.083740 116.156410,231.082245 114.561188,232.162903 
	C113.668167,233.478668 113.067009,234.712296 112.137886,235.908676 
	C111.590874,235.850586 111.371819,235.829712 111.152771,235.808853 
z"/>
<path fill="#2C71C7" opacity="1.000000" stroke="none" 
	d="
M170.179352,251.978027 
	C169.850510,251.520309 169.521667,251.062607 169.452576,250.200821 
	C170.125565,241.510300 170.538788,233.223846 170.952011,224.937408 
	C170.952011,224.937408 170.997864,224.999725 171.350922,224.985657 
	C173.409760,224.192581 175.136826,223.456604 176.816177,222.624298 
	C179.234802,221.425644 181.618759,220.156982 184.013885,219.352676 
	C184.047943,221.224442 184.085632,222.661713 183.989624,224.405212 
	C178.791718,229.052307 172.188309,232.463150 174.152405,241.177185 
	C174.469086,241.631958 174.700424,241.843536 174.962585,242.410904 
	C174.949951,243.869171 174.944809,244.929779 174.791168,246.192444 
	C175.081787,246.937683 175.520905,247.480896 175.977112,248.016022 
	C175.994202,248.007935 175.971649,248.038788 175.980774,248.408722 
	C176.320541,251.212692 176.651169,253.646744 176.586731,256.066895 
	C175.137711,256.035736 174.083740,256.018524 172.968750,255.672821 
	C171.998260,254.222260 171.088791,253.100143 170.179352,251.978027 
z"/>
<path fill="#3D6CA2" opacity="1.000000" stroke="none" 
	d="
M387.949768,271.002838 
	C388.336517,279.448486 381.032715,283.549500 373.991882,282.881165 
	C368.223602,282.333618 360.987793,278.133820 362.601074,270.327423 
	C367.160217,269.916565 371.654480,269.511566 376.921082,268.857483 
	C377.923279,266.732178 378.153198,264.856018 378.654297,262.978668 
	C379.287170,262.975922 379.648834,262.974304 380.010620,262.983368 
	C380.010742,262.994049 380.026398,262.990143 380.019653,263.420654 
	C379.918640,271.690033 378.985291,272.420929 371.220398,271.652771 
	C369.961029,271.528229 368.574707,272.687073 367.247040,273.252655 
	C368.051331,274.484253 368.769440,275.787567 369.703796,276.910980 
	C370.060699,277.340149 371.039307,277.200165 371.519623,277.586700 
	C376.180450,281.337189 380.799805,280.840240 383.292084,275.544189 
	C385.129089,271.640533 385.769470,267.173706 386.951538,262.497742 
	C386.950928,258.038239 386.941895,254.038803 386.951904,249.696793 
	C386.970734,248.896957 386.970490,248.439697 386.978210,247.514954 
	C386.949524,238.388794 386.912842,229.730133 386.898743,220.682816 
	C386.962372,219.516617 387.003448,218.739090 387.370178,218.237305 
	C387.780487,236.009659 387.865143,253.506241 387.949768,271.002838 
z"/>
<path fill="#3D6CA2" opacity="1.000000" stroke="none" 
	d="
M277.577087,218.911835 
	C277.061249,220.263153 276.385498,221.846970 275.291931,223.051468 
	C265.538635,233.794357 265.311066,244.346497 275.086182,255.955017 
	C279.655334,258.332184 283.831390,260.151611 288.407410,261.984253 
	C290.569977,261.690857 292.332550,261.384247 294.433472,261.005371 
	C295.870239,260.586243 296.968567,260.239349 298.414368,259.892700 
	C300.855560,258.595642 302.949341,257.298340 305.432983,256.005493 
	C306.603760,256.028748 307.384613,256.047516 308.165497,256.066284 
	C301.122040,264.027466 288.445953,266.739136 279.485016,262.226379 
	C269.910126,257.404449 262.925354,245.180756 265.628845,234.979309 
	C267.531708,227.798965 270.413666,222.187714 277.577087,218.911835 
z"/>
<path fill="#3371B6" opacity="1.000000" stroke="none" 
	d="
M286.970154,221.954376 
	C287.903381,220.580322 288.836609,219.206268 289.867188,217.535004 
	C299.705078,216.076477 306.464111,220.769714 311.625366,228.957794 
	C310.651459,232.685745 309.811523,235.793152 308.978088,238.548798 
	C307.991791,236.800964 306.999023,235.404861 305.934875,233.665649 
	C304.739349,231.710526 303.381409,230.210892 302.540802,228.462524 
	C300.911499,225.073837 294.988159,225.838516 295.251648,220.755157 
	C292.491150,221.154892 289.730652,221.554642 286.970154,221.954376 
z"/>
<path fill="#3371B6" opacity="1.000000" stroke="none" 
	d="
M247.055481,247.941132 
	C246.528839,247.731445 246.002197,247.521729 245.376038,247.015259 
	C245.387833,246.514526 245.348343,246.338547 245.158051,246.190536 
	C238.621735,239.896149 240.104874,231.950943 248.352844,227.502258 
	C250.564819,226.309174 252.179153,224.008072 253.766891,220.972244 
	C251.749008,220.972244 249.731125,220.972244 247.294006,220.959808 
	C251.061859,216.435211 254.332901,215.840683 263.106537,218.832001 
	C257.578979,223.874786 252.476898,228.296768 247.648682,232.999893 
	C242.862427,237.662125 242.993362,238.505737 247.741913,243.938171 
	C247.502914,245.684250 247.279190,246.812698 247.055481,247.941132 
z"/>
<path fill="#3D6CA2" opacity="1.000000" stroke="none" 
	d="
M173.029785,256.001282 
	C174.083740,256.018524 175.137711,256.035736 176.697784,256.383179 
	C180.113953,258.158386 183.024002,259.603455 186.256012,261.276367 
	C188.714691,261.659912 190.851395,261.815582 193.355591,261.952484 
	C196.807266,260.636780 199.891449,259.339874 202.975632,258.042969 
	C204.066574,258.403961 205.159698,258.758484 206.248077,259.127045 
	C210.656128,260.619720 213.072678,259.132538 212.976242,254.575577 
	C212.823349,247.350189 212.361328,240.131332 212.333557,232.456284 
	C213.039642,231.995178 213.442291,231.987488 213.844940,231.979797 
	C213.899872,233.012695 213.954803,234.045609 213.992035,235.944885 
	C213.949844,245.451447 213.925354,254.091629 213.900864,262.731812 
	C209.175156,262.604004 204.789474,261.201660 199.651917,262.748047 
	C190.419922,265.526825 180.841049,265.645386 173.086456,257.187988 
	C172.988571,256.393127 173.009186,256.197205 173.029785,256.001282 
z"/>
<path fill="#3D6CA2" opacity="1.000000" stroke="none" 
	d="
M247.353500,248.101791 
	C247.279190,246.812698 247.502914,245.684250 247.872208,244.235809 
	C252.857666,249.516968 257.697540,255.118149 262.792542,261.014587 
	C255.263123,263.560577 249.523636,262.003296 245.370789,256.881927 
	C242.611481,253.479111 239.887299,250.047806 237.136200,246.277496 
	C240.894638,249.294418 245.162231,252.267746 248.260391,256.169617 
	C250.356125,258.808990 251.804489,259.519592 255.347626,257.838318 
	C252.598755,254.418015 250.125137,251.340240 247.353500,248.101791 
z"/>
<path fill="#3D6CA2" opacity="1.000000" stroke="none" 
	d="
M308.971588,238.900543 
	C309.811523,235.793152 310.651459,232.685745 311.685822,229.291595 
	C312.715668,232.500534 313.551056,235.996231 313.679138,239.776871 
	C300.753632,240.083969 288.535492,240.106140 276.317322,240.128311 
	C276.197906,238.157791 276.078491,236.187271 276.630249,234.001160 
	C285.488495,233.809738 293.675629,233.833893 301.914673,233.914246 
	C301.966583,233.970413 302.070099,234.083038 301.897064,234.430664 
	C296.024750,235.170807 290.322632,235.527542 284.627899,235.977325 
	C282.880798,236.115311 281.153870,236.508194 279.417694,236.784363 
	C279.462433,237.489761 279.507172,238.195145 279.551910,238.900543 
	C289.358459,238.900543 299.165039,238.900543 308.971588,238.900543 
z"/>
<path fill="#2C71C7" opacity="1.000000" stroke="none" 
	d="
M143.962952,226.027115 
	C145.152664,224.152054 146.342377,222.276993 147.776093,220.163391 
	C152.387268,221.622513 156.083954,223.977051 157.138641,229.790558 
	C157.294632,232.408493 157.294632,234.308762 157.294632,236.209015 
	C156.747375,236.247513 156.200119,236.285995 155.652847,236.324493 
	C151.756210,232.892029 147.859573,229.459579 143.962952,226.027115 
z"/>
<path fill="#D9661C" opacity="1.000000" stroke="none" 
	d="
M342.507904,233.109894 
	C346.088928,233.141586 350.117981,232.188110 350.771301,236.681671 
	C351.290588,240.253326 349.895782,243.981659 345.556885,244.020081 
	C343.096039,244.041870 339.396057,242.834106 338.419769,241.016724 
	C336.731018,237.873169 338.547699,234.721420 342.507904,233.109894 
z"/>
<path fill="#3D6CA2" opacity="1.000000" stroke="none" 
	d="
M224.038132,201.944214 
	C224.043381,219.308167 224.048630,236.672119 224.189087,254.846970 
	C225.418442,257.035095 226.512573,258.412292 227.606689,259.789520 
	C228.719482,258.183136 229.832275,256.576721 230.945068,254.970337 
	C231.423798,252.081238 231.902512,249.192108 232.747208,246.183823 
	C233.051559,249.702606 232.677505,253.369019 233.005676,256.971466 
	C233.437119,261.707184 231.835205,263.838898 226.960678,263.101624 
	C225.824356,262.929779 224.654678,262.978271 223.285370,262.122986 
	C223.033813,243.248245 222.967911,225.175797 223.008072,207.103592 
	C223.011902,205.383041 223.678970,203.663971 224.038132,201.944214 
z"/>
<path fill="#3371B6" opacity="1.000000" stroke="none" 
	d="
M380.010468,262.972687 
	C379.648834,262.974304 379.287170,262.975922 378.582672,262.517639 
	C378.250824,247.411743 378.261871,232.765671 378.272919,218.119614 
	C380.538483,218.079559 382.804016,218.039505 385.776184,217.991547 
	C386.669922,217.979507 386.856995,217.975388 387.031860,217.981201 
	C387.019592,217.991104 387.044525,217.961548 387.044525,217.961548 
	C387.003448,218.739090 386.962372,219.516617 386.538635,220.643692 
	C380.625946,220.102051 380.038391,220.540268 380.021606,226.075974 
	C379.984222,238.374786 380.010284,250.673767 380.010468,262.972687 
z"/>
<path fill="#3D6CA2" opacity="1.000000" stroke="none" 
	d="
M401.759644,257.162659 
	C405.378387,257.277588 409.346283,256.593109 412.296051,260.227814 
	C413.239685,261.390503 415.563751,261.432922 417.641754,262.003662 
	C423.105774,260.721863 428.184235,259.424316 433.836823,258.260681 
	C434.941406,258.587494 435.471863,258.780396 436.278137,259.202881 
	C438.396454,259.222717 440.238892,259.012970 442.287842,258.816467 
	C442.494354,258.829742 442.907379,258.804138 442.851807,259.203857 
	C439.511475,260.075043 436.226685,260.546509 432.941895,261.017975 
	C425.004639,264.787781 416.884918,265.430298 408.742126,261.928864 
	C406.276398,260.868591 404.177246,258.955872 401.759644,257.162659 
z"/>
<path fill="#3D6CA2" opacity="1.000000" stroke="none" 
	d="
M409.072784,221.589081 
	C402.754639,223.257004 398.254181,228.743698 398.025330,235.729004 
	C397.886414,239.969940 398.188385,244.225327 398.083618,248.763641 
	C394.058044,243.023346 393.823212,236.525909 396.354340,230.162155 
	C398.882446,223.806061 404.593384,220.279480 410.231689,216.963715 
	C410.992920,216.516037 412.275909,216.955658 413.653625,217.060303 
	C412.376892,218.509735 410.763855,219.883316 409.072784,221.589081 
z"/>
<path fill="#3371B6" opacity="1.000000" stroke="none" 
	d="
M298.066895,259.892456 
	C296.968567,260.239349 295.870239,260.586243 294.401917,260.604797 
	C294.062164,257.327209 292.259155,256.733002 289.833069,257.107666 
	C286.418610,257.634949 287.646271,259.983185 288.007416,261.971039 
	C283.831390,260.151611 279.655334,258.332184 275.258453,256.246338 
	C276.668213,255.236694 278.298798,254.493469 280.312531,253.443085 
	C282.807190,253.410370 284.918701,253.684769 287.030243,253.959183 
	C287.477814,254.004074 287.925385,254.048981 288.923096,254.315460 
	C290.308594,254.430725 291.143982,254.324402 291.979340,254.218048 
	C292.430054,254.174225 292.880798,254.130402 293.748718,254.358551 
	C296.101837,254.087433 298.037781,253.544312 299.975403,253.377777 
	C299.340332,255.800385 298.703613,257.846405 298.066895,259.892456 
z"/>
<path fill="#3D6CA2" opacity="1.000000" stroke="none" 
	d="
M143.577393,226.025436 
	C147.859573,229.459579 151.756210,232.892029 155.652847,236.324493 
	C156.200119,236.285995 156.747375,236.247513 157.294632,236.209015 
	C157.294632,234.308762 157.294632,232.408493 157.170807,230.152237 
	C158.310135,232.686401 159.573303,235.576569 160.836472,238.466721 
	C159.694931,238.953140 158.476959,239.975174 157.426208,239.825256 
	C154.313171,239.381073 149.504807,242.040863 148.595093,237.043457 
	C147.691620,232.080353 144.692139,229.372620 141.018967,226.369110 
	C141.647247,226.043076 142.419540,226.033417 143.577393,226.025436 
z"/>
<path fill="#3371B6" opacity="1.000000" stroke="none" 
	d="
M340.415161,226.913589 
	C339.543945,226.268509 339.063904,225.688126 338.298035,224.604599 
	C338.014130,222.421219 338.016113,220.740982 338.018097,219.060730 
	C341.057800,218.711304 344.097473,218.361877 347.577209,218.399048 
	C348.694366,220.873825 349.371552,222.961990 350.171844,225.326111 
	C350.514313,226.369232 350.733704,227.136414 350.953064,227.903610 
	C347.570831,227.595169 344.188568,227.286728 340.415161,226.913589 
z"/>
<path fill="#2C71C7" opacity="1.000000" stroke="none" 
	d="
M298.414337,259.892700 
	C298.703613,257.846405 299.340332,255.800385 300.169312,253.073273 
	C300.887848,250.574814 301.414124,248.757416 301.940369,246.940033 
	C301.940369,246.940033 302.003113,246.975128 302.187042,246.880951 
	C302.639282,246.614243 302.872406,246.402878 303.070312,246.152710 
	C305.821259,246.152710 308.572205,246.152710 311.734741,246.152710 
	C311.391693,247.742859 311.078644,249.194016 310.091248,250.900299 
	C307.958984,252.770630 306.501038,254.385834 305.043091,256.001038 
	C302.949341,257.298340 300.855560,258.595642 298.414337,259.892700 
z"/>
<path fill="#3D6CA2" opacity="1.000000" stroke="none" 
	d="
M351.273956,228.035614 
	C350.733704,227.136414 350.514313,226.369232 350.503540,225.367935 
	C352.157379,225.748489 353.602631,226.363174 355.266541,227.228561 
	C357.319733,229.987732 359.154327,232.496185 361.249023,235.242340 
	C365.320709,238.638931 366.005157,236.415833 366.159546,232.885880 
	C367.186310,233.568878 367.994781,234.270844 368.803284,234.972809 
	C369.000671,237.365631 369.268555,240.088455 365.756104,239.797287 
	C362.929993,239.563019 359.283875,241.931778 357.666473,236.754120 
	C356.671906,233.570404 353.686371,231.008667 351.273956,228.035614 
z"/>
<path fill="#3D6CA2" opacity="1.000000" stroke="none" 
	d="
M184.017502,218.918198 
	C181.618759,220.156982 179.234802,221.425644 176.816177,222.624298 
	C175.136826,223.456604 173.409760,224.192581 171.320160,224.961975 
	C179.140823,213.973709 191.110016,213.090591 202.117523,218.501907 
	C199.699173,218.650803 197.243973,218.389633 193.946533,218.061066 
	C190.075378,218.301865 187.046432,218.610031 184.017502,218.918198 
z"/>
<path fill="#2C71C7" opacity="1.000000" stroke="none" 
	d="
M355.047882,226.977844 
	C353.602631,226.363174 352.157379,225.748489 350.380432,225.091980 
	C349.371552,222.961990 348.694366,220.873825 348.017639,218.410461 
	C349.625244,217.932114 351.232361,217.828979 352.969940,217.430359 
	C354.972412,218.519119 356.844421,219.903381 358.891693,221.958466 
	C360.219727,226.382431 358.499786,227.480499 355.047882,226.977844 
z"/>
<path fill="#3D6CA2" opacity="1.000000" stroke="none" 
	d="
M170.639267,225.104889 
	C170.538788,233.223846 170.125565,241.510300 169.422791,249.918823 
	C164.195404,243.477737 164.653366,233.971878 170.639267,225.104889 
z"/>
<path fill="#6A92BE" opacity="1.000000" stroke="none" 
	d="
M121.082382,236.084351 
	C121.468117,236.042847 121.853851,236.001343 122.529442,235.933258 
	C122.884796,241.994431 122.976738,248.082016 123.009537,254.169922 
	C123.057549,263.085419 122.456673,263.600739 113.342804,262.163940 
	C113.541283,261.416626 113.800034,261.220215 114.470894,261.049927 
	C118.643883,261.433105 120.528648,259.586792 120.927673,255.471420 
	C121.013145,248.701157 121.047760,242.392761 121.082382,236.084351 
z"/>
<path fill="#2C71C7" opacity="1.000000" stroke="none" 
	d="
M133.005768,218.004990 
	C133.851196,222.078705 131.530167,224.604996 128.104279,224.960037 
	C126.236786,225.153595 124.100128,222.750061 122.016052,221.167648 
	C122.718231,219.609756 123.489227,218.402054 124.723167,217.398422 
	C127.792671,217.736664 130.399216,217.870834 133.005768,218.004990 
z"/>
<path fill="#6A92BE" opacity="1.000000" stroke="none" 
	d="
M224.071854,201.750656 
	C223.678970,203.663971 223.011902,205.383041 223.008072,207.103592 
	C222.967911,225.175797 223.033813,243.248245 223.018188,261.807495 
	C222.527817,260.115906 221.948593,257.953247 221.701477,255.753281 
	C221.538910,254.306091 221.941605,252.805222 221.943741,251.328186 
	C221.966461,235.595200 221.930511,219.862015 222.024277,204.129547 
	C222.030762,203.040955 222.942947,201.957794 223.800171,201.020493 
	C224.166382,201.168884 224.105576,201.557098 224.071854,201.750656 
z"/>
<path fill="#6A92BE" opacity="1.000000" stroke="none" 
	d="
M433.142456,261.353821 
	C436.226685,260.546509 439.511475,260.075043 442.840454,259.018616 
	C442.884644,258.433624 442.844116,258.060059 442.900269,257.652252 
	C443.008423,256.151184 443.060486,255.057907 443.126831,253.499359 
	C443.378174,247.376602 443.615204,241.719131 443.852234,236.061646 
	C444.207916,243.973114 444.895905,251.890152 444.763641,259.793457 
	C444.706848,263.187378 441.237701,263.271698 438.507812,262.951050 
	C436.760925,262.745880 435.062897,262.124481 433.142456,261.353821 
z"/>
<path fill="#3D6CA2" opacity="1.000000" stroke="none" 
	d="
M443.913086,235.680908 
	C443.615204,241.719131 443.378174,247.376602 442.875214,253.499878 
	C442.442322,253.960129 442.275299,253.954605 442.090851,253.485931 
	C441.643250,244.418243 443.283264,235.397400 437.034607,227.962738 
	C436.370697,226.181564 435.706787,224.400391 435.041779,222.252106 
	C440.041779,225.009354 442.409332,229.887436 443.913086,235.680908 
z"/>
<path fill="#3371B6" opacity="1.000000" stroke="none" 
	d="
M355.266541,227.228561 
	C358.499786,227.480499 360.219727,226.382431 359.060669,222.258377 
	C364.545410,224.245926 367.414246,228.702988 368.870483,234.604782 
	C367.994781,234.270844 367.186310,233.568878 365.929688,232.672256 
	C364.635651,231.410278 363.789734,230.342972 361.991211,228.073853 
	C361.514893,231.367645 361.251892,233.186127 360.988922,235.004639 
	C359.154327,232.496185 357.319733,229.987732 355.266541,227.228561 
z"/>
<path fill="#9EBCDC" opacity="1.000000" stroke="none" 
	d="
M57.606194,236.028778 
	C58.077774,250.679489 58.160885,265.556244 58.513577,280.748627 
	C58.843254,282.115021 58.903355,283.165833 58.983131,284.968750 
	C59.381927,287.098999 59.761040,288.477051 60.140152,289.855133 
	C57.826691,290.452576 56.904980,289.745941 56.930668,287.179993 
	C57.100613,270.205688 57.137505,253.230042 57.606194,236.028778 
z"/>
<path fill="#3371B6" opacity="1.000000" stroke="none" 
	d="
M60.495628,289.939209 
	C59.761040,288.477051 59.381927,287.098999 59.033195,285.358490 
	C60.780941,284.996063 62.498306,284.996063 63.944908,284.996063 
	C64.294662,277.862488 64.614876,271.331360 65.245911,264.743164 
	C65.741135,271.879730 65.925537,279.073334 65.880783,286.478943 
	C64.780281,287.751526 63.908939,288.812134 63.037598,289.872772 
	C62.308769,289.922943 61.579941,289.973114 60.495628,289.939209 
z"/>
<path fill="#9EBCDC" opacity="1.000000" stroke="none" 
	d="
M388.352570,270.820740 
	C387.865143,253.506241 387.780487,236.009659 387.370178,218.237305 
	C387.044525,217.961548 387.019592,217.991104 387.017303,217.776627 
	C387.015015,217.562149 387.019714,217.151611 387.019714,217.151611 
	C387.671234,217.927612 388.889343,218.702408 388.890991,219.479797 
	C388.927124,236.532547 388.828339,253.585617 388.352570,270.820740 
z"/>
<path fill="#9EBCDC" opacity="1.000000" stroke="none" 
	d="
M378.072144,217.753799 
	C378.261871,232.765671 378.250824,247.411743 378.311462,262.518799 
	C378.153198,264.856018 377.923279,266.732178 377.329132,268.777771 
	C376.959808,253.030121 376.933746,237.112991 376.989594,221.196152 
	C376.994019,219.925751 377.564148,218.657318 378.072144,217.753799 
z"/>
<path fill="#6A92BE" opacity="1.000000" stroke="none" 
	d="
M320.606384,232.926239 
	C321.009583,240.593369 321.071381,248.467133 321.005768,256.339844 
	C320.998657,257.191101 320.253479,258.036255 319.461426,259.014221 
	C319.457489,250.473663 319.842712,241.803116 320.606384,232.926239 
z"/>
<path fill="#6A92BE" opacity="1.000000" stroke="none" 
	d="
M214.293732,262.660797 
	C213.925354,254.091629 213.949844,245.451447 213.998215,236.333405 
	C216.517670,244.710419 217.118652,253.612411 214.293732,262.660797 
z"/>
<path fill="#9EBCDC" opacity="1.000000" stroke="none" 
	d="
M276.196716,240.494812 
	C288.535492,240.106140 300.753632,240.083969 313.428040,239.992798 
	C312.442810,240.281693 311.003815,240.938126 309.559509,240.949921 
	C298.809601,241.037659 288.058624,240.997543 277.267181,240.997543 
	C277.528229,242.887817 277.743042,244.443420 277.740204,246.233704 
	C277.064240,245.877914 276.605927,245.287445 276.147583,244.696976 
	C276.123749,243.418411 276.099915,242.139862 276.196716,240.494812 
z"/>
<path fill="#3D6CA2" opacity="1.000000" stroke="none" 
	d="
M133.467804,217.998383 
	C130.399216,217.870834 127.792671,217.736664 125.033173,217.332306 
	C131.520569,215.767563 138.164551,214.157028 144.956360,217.614914 
	C141.415619,217.957397 137.672729,217.974579 133.467804,217.998383 
z"/>
<path fill="#3D6CA2" opacity="1.000000" stroke="none" 
	d="
M114.080170,261.052002 
	C113.800034,261.220215 113.541283,261.416626 113.127495,261.809570 
	C112.951088,261.977966 112.487587,261.887390 112.157867,261.373596 
	C112.040710,252.555145 112.253281,244.250534 112.465851,235.945908 
	C113.067009,234.712296 113.668167,233.478668 114.564484,232.545593 
	C114.569565,234.898529 114.279495,236.950912 113.836914,239.363937 
	C113.502144,241.836151 113.319893,243.947739 113.120758,246.501907 
	C113.123718,249.596878 113.143562,252.249268 113.128082,255.298447 
	C113.421906,257.480835 113.751038,259.266418 114.080170,261.052002 
z"/>
<path fill="#6A92BE" opacity="1.000000" stroke="none" 
	d="
M63.377213,289.917908 
	C63.908939,288.812134 64.780281,287.751526 66.133568,286.116455 
	C66.916122,278.663544 67.216736,271.785034 67.647842,265.300049 
	C67.844635,273.817505 67.910927,281.941437 67.977219,290.065338 
	C66.557091,290.031219 65.136963,289.997131 63.377213,289.917908 
z"/>
<path fill="#6A92BE" opacity="1.000000" stroke="none" 
	d="
M230.917007,201.230453 
	C230.615707,201.083374 230.363647,200.876328 230.027679,200.401047 
	C232.971085,199.289001 233.074432,201.157684 233.056427,203.415039 
	C232.995270,211.075500 232.992355,218.737076 233.062439,226.397369 
	C233.077026,227.989441 233.499969,229.577789 233.921326,231.545166 
	C233.636551,231.959686 233.165192,231.996918 232.350983,231.536469 
	C231.991943,223.300476 232.050079,215.560822 231.912338,207.824677 
	C231.873123,205.621384 231.264511,203.428253 230.917007,201.230453 
z"/>
<path fill="#9EBCDC" opacity="1.000000" stroke="none" 
	d="
M68.391235,289.893127 
	C67.910927,281.941437 67.844635,273.817505 67.689514,264.979004 
	C67.471016,263.216187 67.341362,262.167999 67.653397,261.028137 
	C68.395248,260.955017 68.695404,260.973572 69.033020,261.039276 
	C69.070473,261.086395 69.144646,261.181152 69.144638,261.181152 
	C69.031509,270.694427 68.918381,280.207672 68.391235,289.893127 
z"/>
<path fill="#3371B6" opacity="1.000000" stroke="none" 
	d="
M213.789780,231.635040 
	C213.442291,231.987488 213.039642,231.995178 212.335663,232.008575 
	C209.927597,228.815750 207.820877,225.617203 205.915070,222.183670 
	C208.655533,225.062546 211.195084,228.176407 213.789780,231.635040 
z"/>
<path fill="#3D6CA2" opacity="1.000000" stroke="none" 
	d="
M276.112793,245.098633 
	C276.605927,245.287445 277.064240,245.877914 277.732056,246.642914 
	C280.862762,248.983719 283.783905,251.149979 286.867676,253.637726 
	C284.918701,253.684769 282.807190,253.410370 280.346375,253.069061 
	C278.690735,250.501541 277.384369,248.000900 276.112793,245.098633 
z"/>
<path fill="#3D6CA2" opacity="1.000000" stroke="none" 
	d="
M301.619019,247.069275 
	C301.414124,248.757416 300.887848,250.574814 300.167664,252.696686 
	C298.037781,253.544312 296.101837,254.087433 294.088623,254.345306 
	C296.440155,251.772888 298.868927,249.485703 301.619019,247.069275 
z"/>
<path fill="#6A92BE" opacity="1.000000" stroke="none" 
	d="
M330.368958,261.850983 
	C329.973602,254.970032 329.904572,247.884552 330.020447,240.802124 
	C330.045288,239.285446 330.740173,237.779739 331.499573,236.141174 
	C331.592957,241.748718 331.298492,247.483398 331.039520,253.219681 
	C330.912750,256.027435 330.852020,258.838165 330.368958,261.850983 
z"/>
<path fill="#9EBCDC" opacity="1.000000" stroke="none" 
	d="
M112.137894,235.908676 
	C112.253281,244.250534 112.040710,252.555145 111.933441,261.300140 
	C111.705482,259.490845 111.135796,257.246552 111.084618,254.990494 
	C110.946991,248.924606 111.030853,242.853668 111.089775,236.296799 
	C111.371819,235.829712 111.590874,235.850586 112.137894,235.908676 
z"/>
<path fill="#3371B6" opacity="1.000000" stroke="none" 
	d="
M305.432983,256.005493 
	C306.501038,254.385834 307.958984,252.770630 309.779510,251.109253 
	C309.674255,252.643875 309.206451,254.224640 308.452057,255.935852 
	C307.384613,256.047516 306.603760,256.028748 305.432983,256.005493 
z"/>
<path fill="#3371B6" opacity="1.000000" stroke="none" 
	d="
M172.968750,255.672821 
	C173.009186,256.197205 172.988571,256.393127 172.934113,256.882263 
	C171.947647,255.689285 170.995010,254.203110 170.110840,252.347473 
	C171.088791,253.100143 171.998260,254.222260 172.968750,255.672821 
z"/>
<path fill="#3D6CA2" opacity="1.000000" stroke="none" 
	d="
M399.088745,252.270966 
	C399.919586,253.203720 400.685272,254.467316 401.275757,256.048859 
	C400.408203,255.111786 399.715912,253.856796 399.088745,252.270966 
z"/>
<path fill="#9EBCDC" opacity="1.000000" stroke="none" 
	d="
M72.962357,260.060699 
	C73.279671,260.487518 73.596985,260.914368 74.008080,261.591125 
	C72.680443,261.706360 71.259033,261.571655 69.491135,261.309052 
	C69.144646,261.181152 69.070473,261.086395 69.230972,260.742859 
	C70.581772,260.286438 71.772064,260.173553 72.962357,260.060699 
z"/>
<path fill="#3D6CA2" opacity="1.000000" stroke="none" 
	d="
M291.616333,254.135086 
	C291.143982,254.324402 290.308594,254.430725 289.255798,254.372467 
	C289.776703,254.155960 290.515045,254.104034 291.616333,254.135086 
z"/>
<path fill="#3D6CA2" opacity="1.000000" stroke="none" 
	d="
M386.762268,217.146835 
	C387.019714,217.151611 387.015015,217.562149 387.029541,217.766724 
	C386.856995,217.975388 386.669922,217.979507 386.202301,217.971985 
	C386.116119,217.687576 386.310455,217.414825 386.762268,217.146835 
z"/>
<path fill="#3D6CA2" opacity="1.000000" stroke="none" 
	d="
M302.797974,246.127014 
	C302.872406,246.402878 302.639282,246.614243 302.151794,246.875671 
	C302.130280,246.676819 302.327942,246.389069 302.797974,246.127014 
z"/>
<path fill="#3D6CA2" opacity="1.000000" stroke="none" 
	d="
M93.997955,247.980652 
	C93.697350,249.401703 93.396751,250.822739 92.667084,252.628067 
	C90.162560,253.967041 88.087112,254.921722 86.011658,255.876419 
	C77.702354,257.648193 71.272362,253.439194 67.336411,247.379990 
	C65.071144,243.892685 64.712936,236.797913 66.797447,233.286926 
	C73.738297,221.596359 86.146851,220.169861 95.606392,230.429703 
	C99.632591,234.796539 98.179283,240.785889 97.435524,246.178024 
	C97.338058,246.884583 95.692467,247.377579 94.400131,247.554504 
	C94.280594,245.869080 94.518234,244.597305 94.770103,243.328369 
	C97.136757,231.405014 87.662605,224.066696 77.771179,227.015213 
	C70.372971,229.220520 66.610367,238.370056 70.062164,245.981644 
	C73.965034,254.587891 83.466507,256.530212 90.389992,250.205307 
	C91.414803,249.269089 92.786659,248.712738 93.997955,247.980652 
z"/>
<path fill="#3371B6" opacity="1.000000" stroke="none" 
	d="
M59.348114,278.833618 
	C58.988888,270.432617 58.929211,261.882996 59.049770,253.335907 
	C59.073555,251.649765 59.791553,249.973434 60.537228,248.126801 
	C60.917423,256.863708 61.003262,265.766876 60.924767,274.668579 
	C60.912930,276.011139 60.134605,277.346924 59.348114,278.833618 
z"/>
<path fill="#3371B6" opacity="1.000000" stroke="none" 
	d="
M86.009964,256.292664 
	C88.087112,254.921722 90.162560,253.967041 92.596527,252.985901 
	C92.969841,253.717178 92.984634,254.474884 93.002426,255.610687 
	C90.935768,257.330872 88.866112,258.672974 86.428490,260.017761 
	C86.043106,258.916626 86.025681,257.812744 86.009964,256.292664 
z"/>
<path fill="#3D6CA2" opacity="1.000000" stroke="none" 
	d="
M67.211700,261.119812 
	C67.341362,262.167999 67.471016,263.216187 67.559013,264.585449 
	C67.216736,271.785034 66.916122,278.663544 66.362724,285.904510 
	C65.925537,279.073334 65.741135,271.879730 65.342789,264.336731 
	C65.295403,263.155457 65.461960,262.323547 66.039009,261.270081 
	C66.701134,261.098358 66.955200,261.122131 67.211700,261.119812 
z"/>
<path fill="#6A92BE" opacity="1.000000" stroke="none" 
	d="
M67.653397,261.028137 
	C66.955200,261.122131 66.701134,261.098358 66.257912,261.032959 
	C67.433708,257.133392 69.819626,257.537170 72.765869,259.766693 
	C71.772064,260.173553 70.581772,260.286438 69.193527,260.695740 
	C68.695404,260.973572 68.395248,260.955017 67.653397,261.028137 
z"/>
<path fill="#3371B6" opacity="1.000000" stroke="none" 
	d="
M85.715286,260.116272 
	C85.535690,260.650238 85.057831,261.243774 84.281860,261.900726 
	C84.461502,261.368042 84.939255,260.771912 85.715286,260.116272 
z"/>
<path fill="#3371B6" opacity="1.000000" stroke="none" 
	d="
M230.934235,201.678925 
	C231.264511,203.428253 231.873123,205.621384 231.912338,207.824677 
	C232.050079,215.560822 231.991943,223.300476 231.997009,231.503693 
	C231.653259,228.430008 231.122589,224.896515 231.031250,221.351715 
	C230.866226,214.947174 230.963654,208.535873 230.934235,201.678925 
z"/>
<path fill="#3371B6" opacity="1.000000" stroke="none" 
	d="
M230.604614,255.037537 
	C229.832275,256.576721 228.719482,258.183136 227.606689,259.789520 
	C226.512573,258.412292 225.418442,257.035095 224.207184,255.313324 
	C226.148071,255.014099 228.206116,255.059402 230.604614,255.037537 
z"/>
<path fill="#3D6CA2" opacity="1.000000" stroke="none" 
	d="
M245.141891,246.355713 
	C245.348343,246.338547 245.387833,246.514526 245.200165,246.785629 
	C245.123810,246.852783 245.125732,246.520889 245.141891,246.355713 
z"/>
<path fill="#000000" opacity="1.000000" stroke="none" 
	d="
M410.787537,229.766846 
	C415.861053,225.809097 420.917175,224.571060 426.406677,227.980621 
	C431.934204,231.413818 434.112823,236.440430 433.023865,243.131577 
	C432.041779,249.166275 425.053528,253.475052 417.188080,252.895630 
	C410.872589,252.430389 407.089355,248.062378 407.094727,241.332138 
	C407.098022,237.211044 406.795013,233.025650 410.787537,229.766846 
M425.041260,245.039597 
	C425.041260,245.039597 425.069122,245.116119 425.588379,244.968918 
	C425.764374,244.668564 425.940369,244.368225 426.012360,244.021957 
	C426.012360,244.021957 426.099670,244.094849 426.803436,243.778717 
	C428.242981,240.472321 429.601837,237.179840 424.808990,234.210342 
	C419.974548,231.779907 417.070618,232.427505 412.077148,237.294876 
	C410.155731,240.266922 410.013458,243.144135 412.940948,245.509857 
	C417.030914,248.814972 420.920105,248.948242 424.014313,246.008865 
	C424.014313,246.008865 424.087433,246.117676 424.609955,245.982849 
	C424.778320,245.679901 424.946716,245.376953 425.041260,245.039597 
z"/>
<path fill="#2C71C7" opacity="1.000000" stroke="none" 
	d="
M436.705078,227.879730 
	C443.283264,235.397400 441.643250,244.418243 442.057983,253.890198 
	C442.033142,255.833786 442.023834,256.910004 442.008057,257.992432 
	C442.001617,257.998627 441.988037,258.012787 441.590759,258.008881 
	C439.463104,258.327728 437.732727,258.650482 436.002319,258.973267 
	C435.471863,258.780396 434.941406,258.587494 434.209106,258.192322 
	C434.341797,253.160950 434.685852,248.332443 435.008545,243.502518 
	C435.466492,236.648102 434.700714,230.124893 429.144073,224.921555 
	C429.568237,224.543121 429.992401,224.164673 430.416595,223.786224 
	C432.402924,225.123047 434.389252,226.459885 436.705078,227.879730 
z"/>
<path fill="#2C71C7" opacity="1.000000" stroke="none" 
	d="
M422.139038,221.836227 
	C423.502411,216.796921 426.050812,220.388245 428.150604,220.564285 
	C426.359558,221.968689 425.286346,225.973206 422.139038,221.836227 
z"/>
<path fill="#000000" opacity="1.000000" stroke="none" 
	d="
M205.192688,240.030380 
	C205.131470,240.764923 205.070267,241.499451 204.926086,242.922943 
	C203.214951,246.027847 201.586807,248.443832 199.594528,250.935059 
	C196.478073,252.075943 193.725769,253.141556 190.606918,254.146835 
	C189.501785,254.137497 188.763199,254.188507 187.705109,254.074722 
	C184.384720,251.552063 179.814041,249.773239 178.689041,246.723404 
	C175.779602,238.836075 177.052490,230.478607 187.428406,226.039307 
	C190.894211,226.280075 193.952927,226.558945 197.011658,226.837814 
	C197.011658,226.837814 197.419342,226.985931 197.805908,227.330566 
	C200.525864,231.793579 202.859283,235.911987 205.192688,240.030380 
z"/>
<path fill="#3371B6" opacity="1.000000" stroke="none" 
	d="
M196.973572,226.488708 
	C193.952927,226.558945 190.894211,226.280075 187.273209,225.767914 
	C185.848404,225.056076 184.985870,224.577545 184.123337,224.098999 
	C184.085632,222.661713 184.047943,221.224442 184.013885,219.352676 
	C187.046432,218.610031 190.075378,218.301865 193.547729,217.999390 
	C193.475037,219.373978 192.958908,220.742859 192.424927,222.159119 
	C193.956345,223.510559 195.445923,224.825073 196.973572,226.488708 
z"/>
<path fill="#3371B6" opacity="1.000000" stroke="none" 
	d="
M205.510162,239.897446 
	C202.859283,235.911987 200.525864,231.793579 198.020386,227.362747 
	C198.864487,226.579025 199.880676,226.107742 200.969086,225.602951 
	C204.458389,229.676544 210.731018,232.770294 205.510162,239.897446 
z"/>
<path fill="#3371B6" opacity="1.000000" stroke="none" 
	d="
M202.895706,257.728455 
	C199.891449,259.339874 196.807266,260.636780 193.417480,261.609802 
	C193.061691,259.212830 193.011505,257.139801 193.355728,255.024185 
	C195.822922,254.643936 197.895721,254.306259 199.994980,253.994568 
	C200.021439,254.020569 200.074844,254.072067 200.074844,254.072067 
	C200.988495,255.186020 201.902130,256.299988 202.895706,257.728455 
z"/>
<path fill="#3371B6" opacity="1.000000" stroke="none" 
	d="
M199.958664,250.859802 
	C201.586807,248.443832 203.214951,246.027847 204.982971,243.288757 
	C208.668045,245.628021 205.790817,248.210388 204.717346,250.494751 
	C204.041016,251.933975 202.108917,252.783081 200.407501,253.984497 
	C200.074844,254.072067 200.021439,254.020569 200.003784,253.606720 
	C199.976990,252.415192 199.967834,251.637497 199.958664,250.859802 
z"/>
<path fill="#3D6CA2" opacity="1.000000" stroke="none" 
	d="
M286.632812,222.113831 
	C289.730652,221.554642 292.491150,221.154892 295.251648,220.755157 
	C294.988159,225.838516 300.911499,225.073837 302.540802,228.462524 
	C303.381409,230.210892 304.739349,231.710526 305.540283,233.666962 
	C304.168030,234.035248 303.119080,234.059143 302.070099,234.083038 
	C302.070099,234.083038 301.966583,233.970413 301.927521,233.674042 
	C301.888458,233.377686 301.982208,232.905594 301.838440,232.597916 
	C297.836548,223.521194 284.092590,222.102493 278.570801,231.196716 
	C277.657532,231.529251 277.005951,231.806488 276.354370,232.083710 
	C276.151123,229.022781 279.925293,223.887314 282.995209,223.071655 
	C284.088806,222.781097 285.195038,222.538025 286.632812,222.113831 
z"/>
<path fill="#9EBCDC" opacity="1.000000" stroke="none" 
	d="
M301.982208,232.905594 
	C301.982208,232.905594 301.888458,233.377686 301.875610,233.617874 
	C293.675629,233.833893 285.488495,233.809738 276.865967,233.788635 
	C276.375732,233.412384 276.320984,233.033066 276.310303,232.368744 
	C277.005951,231.806488 277.657532,231.529251 278.637268,231.623230 
	C279.765930,232.343002 280.564880,232.989105 281.367218,232.993378 
	C288.238525,233.030029 295.110474,232.950424 301.982208,232.905594 
z"/>
<path fill="#2C71C7" opacity="1.000000" stroke="none" 
	d="
M337.644073,219.045380 
	C338.016113,220.740982 338.014130,222.421219 338.012268,224.520721 
	C332.338745,229.271805 326.556580,233.185471 328.494385,242.158707 
	C329.441101,246.542450 328.448547,251.413513 327.892914,256.010712 
	C327.729553,257.362152 326.055756,258.531006 323.784973,259.543732 
	C323.398895,256.896179 322.512451,254.208664 322.720154,251.608551 
	C323.355438,243.656082 320.774170,234.968842 326.117767,228.024384 
	C328.949280,224.344559 333.497070,221.985382 337.644073,219.045380 
z"/>
<path fill="#2C71C7" opacity="1.000000" stroke="none" 
	d="
M113.163406,254.901642 
	C113.143562,252.249268 113.123718,249.596878 113.426910,246.381989 
	C116.686455,243.647766 116.148354,241.354004 113.989426,239.003296 
	C114.279495,236.950912 114.569565,234.898529 114.856346,232.463440 
	C116.156410,231.082245 117.459763,230.083740 118.763115,229.085251 
	C119.507324,230.123993 120.251526,231.162735 120.985954,232.880447 
	C120.978447,233.755249 120.980728,233.951096 120.983017,234.146957 
	C120.983017,234.146957 120.949051,234.447159 120.706787,234.669907 
	C120.300163,234.927826 120.135811,234.963013 119.683006,235.086166 
	C119.553345,236.128967 119.712143,237.083786 119.871063,238.373352 
	C119.870186,239.154373 119.869186,239.600677 119.658936,240.389450 
	C119.307899,243.200943 118.843437,245.703201 119.093697,248.131821 
	C119.566689,252.721939 117.945396,255.098633 113.163406,254.901642 
z"/>
<path fill="#3D6CA2" opacity="1.000000" stroke="none" 
	d="
M119.868179,240.046982 
	C119.869186,239.600677 119.870186,239.154373 119.911453,237.994263 
	C119.958305,236.519714 119.964882,235.758957 119.971458,234.998199 
	C120.135811,234.963013 120.300163,234.927826 120.706696,234.820953 
	C120.971146,234.971603 120.993416,235.193954 121.049042,235.750336 
	C121.047760,242.392761 121.013145,248.701157 120.713120,255.131531 
	C120.254532,250.184662 120.061356,245.115829 119.868179,240.046982 
z"/>
<path fill="#3D6CA2" opacity="1.000000" stroke="none" 
	d="
M121.098450,234.013077 
	C120.980728,233.951096 120.978447,233.755249 120.990784,233.265686 
	C121.117928,233.167191 121.253914,233.353745 121.331146,233.562073 
	C121.360870,233.642288 121.256927,233.772018 121.098450,234.013077 
z"/>
<path fill="#3D6CA2" opacity="1.000000" stroke="none" 
	d="
M183.989624,224.405212 
	C184.985870,224.577545 185.848404,225.056076 186.866150,225.806000 
	C177.052490,230.478607 175.779602,238.836075 178.689041,246.723404 
	C179.814041,249.773239 184.384720,251.552063 187.705780,254.291138 
	C188.025925,254.672363 188.025558,255.105225 187.690521,255.096497 
	C186.908844,255.084534 186.462173,255.081299 185.696045,254.920731 
	C182.241592,252.521851 179.106613,250.280319 175.971649,248.038788 
	C175.971649,248.038788 175.994202,248.007935 175.867737,247.753448 
	C175.474060,246.996109 175.206863,246.493240 174.939667,245.990387 
	C174.944809,244.929779 174.949951,243.869171 174.841339,242.207916 
	C174.534760,241.352402 174.301834,241.141937 174.028763,240.975861 
	C172.188309,232.463150 178.791718,229.052307 183.989624,224.405212 
z"/>
<path fill="#3371B6" opacity="1.000000" stroke="none" 
	d="
M175.980774,248.408722 
	C179.106613,250.280319 182.241592,252.521851 185.545715,255.224762 
	C185.787949,257.473572 185.861008,259.261047 185.934052,261.048492 
	C183.024002,259.603455 180.113953,258.158386 177.092834,256.397064 
	C176.651169,253.646744 176.320541,251.212692 175.980774,248.408722 
z"/>
<path fill="#3371B6" opacity="1.000000" stroke="none" 
	d="
M174.791168,246.192444 
	C175.206863,246.493240 175.474060,246.996109 175.850647,247.761536 
	C175.520905,247.480896 175.081787,246.937683 174.791168,246.192444 
z"/>
<path fill="#3371B6" opacity="1.000000" stroke="none" 
	d="
M174.152405,241.177185 
	C174.301834,241.141937 174.534760,241.352402 174.848801,241.810272 
	C174.700424,241.843536 174.469086,241.631958 174.152405,241.177185 
z"/>
<path fill="#2C71C7" opacity="1.000000" stroke="none" 
	d="
M380.010620,262.983368 
	C380.010284,250.673767 379.984222,238.374786 380.021606,226.075974 
	C380.038391,220.540268 380.625946,220.102051 386.516052,221.032349 
	C386.912842,229.730133 386.949524,238.388794 386.727295,247.583878 
	C386.623199,248.759995 386.778015,249.399673 386.932861,250.039368 
	C386.941895,254.038803 386.950928,258.038239 386.521423,262.512695 
	C384.064026,262.988495 382.045227,262.989319 380.026398,262.990143 
	C380.026398,262.990143 380.010742,262.994049 380.010620,262.983368 
z"/>
<path fill="#3371B6" opacity="1.000000" stroke="none" 
	d="
M380.019653,263.420654 
	C382.045227,262.989319 384.064026,262.988495 386.512939,262.972717 
	C385.769470,267.173706 385.129089,271.640533 383.292084,275.544189 
	C380.799805,280.840240 376.180450,281.337189 371.519623,277.586700 
	C371.039307,277.200165 370.060699,277.340149 369.703796,276.910980 
	C368.769440,275.787567 368.051331,274.484253 367.247040,273.252655 
	C368.574707,272.687073 369.961029,271.528229 371.220398,271.652771 
	C378.985291,272.420929 379.918640,271.690033 380.019653,263.420654 
z"/>
<path fill="#3371B6" opacity="1.000000" stroke="none" 
	d="
M386.951904,249.696793 
	C386.778015,249.399673 386.623199,248.759995 386.719299,248.051361 
	C386.970490,248.439697 386.970734,248.896957 386.951904,249.696793 
z"/>
<path fill="#2C71C7" opacity="1.000000" stroke="none" 
	d="
M288.407410,261.984253 
	C287.646271,259.983185 286.418610,257.634949 289.833069,257.107666 
	C292.259155,256.733002 294.062164,257.327209 294.063538,260.677063 
	C292.332550,261.384247 290.569977,261.690857 288.407410,261.984253 
z"/>
<path fill="#2C71C7" opacity="1.000000" stroke="none" 
	d="
M301.897064,234.430664 
	C303.119080,234.059143 304.168030,234.035248 305.611633,234.010040 
	C306.999023,235.404861 307.991791,236.800964 308.978088,238.548798 
	C299.165039,238.900543 289.358459,238.900543 279.551910,238.900543 
	C279.507172,238.195145 279.462433,237.489761 279.417694,236.784363 
	C281.153870,236.508194 282.880798,236.115311 284.627899,235.977325 
	C290.322632,235.527542 296.024750,235.170807 301.897064,234.430664 
z"/>
<path fill="#2C71C7" opacity="1.000000" stroke="none" 
	d="
M186.256012,261.276367 
	C185.861008,259.261047 185.787949,257.473572 185.865204,255.382111 
	C186.462173,255.081299 186.908844,255.084534 187.905472,255.275848 
	C189.297729,255.335770 190.139999,255.207596 191.312317,255.072449 
	C192.082016,255.065903 192.521667,255.066330 192.961319,255.066757 
	C193.011505,257.139801 193.061691,259.212830 193.049988,261.628601 
	C190.851395,261.815582 188.714691,261.659912 186.256012,261.276367 
z"/>
<path fill="#3371B6" opacity="1.000000" stroke="none" 
	d="
M436.278137,259.202881 
	C437.732727,258.650482 439.463104,258.327728 441.613831,258.206482 
	C442.034180,258.407959 442.081360,258.803223 442.081360,258.803223 
	C440.238892,259.012970 438.396454,259.222717 436.278137,259.202881 
z"/>
<path fill="#2C71C7" opacity="1.000000" stroke="none" 
	d="
M442.287842,258.816467 
	C442.081360,258.803223 442.034180,258.407959 442.011108,258.210388 
	C441.988037,258.012787 442.001617,257.998627 442.215271,258.012512 
	C442.428925,258.026367 442.844116,258.060059 442.844116,258.060059 
	C442.844116,258.060059 442.884644,258.433624 442.895996,258.618896 
	C442.907379,258.804138 442.494354,258.829742 442.287842,258.816467 
z"/>
<path fill="#2C71C7" opacity="1.000000" stroke="none" 
	d="
M361.249023,235.242325 
	C361.251892,233.186127 361.514893,231.367645 361.991211,228.073853 
	C363.789734,230.342972 364.635651,231.410278 365.711426,232.691208 
	C366.005157,236.415833 365.320709,238.638931 361.249023,235.242325 
z"/>
<path fill="#3371B6" opacity="1.000000" stroke="none" 
	d="
M119.658936,240.389450 
	C120.061356,245.115829 120.254532,250.184662 120.662262,255.593384 
	C120.528648,259.586792 118.643883,261.433105 114.470901,261.049927 
	C113.751038,259.266418 113.421906,257.480835 113.128090,255.298447 
	C117.945396,255.098633 119.566689,252.721939 119.093697,248.131821 
	C118.843437,245.703201 119.307899,243.200943 119.658936,240.389450 
z"/>
<path fill="#3371B6" opacity="1.000000" stroke="none" 
	d="
M442.900269,257.652252 
	C442.844116,258.060059 442.428925,258.026367 442.221710,258.006287 
	C442.023834,256.910004 442.033142,255.833786 442.075378,254.353317 
	C442.275299,253.954605 442.442322,253.960129 442.860931,253.965149 
	C443.060486,255.057907 443.008423,256.151184 442.900269,257.652252 
z"/>
<path fill="#3371B6" opacity="1.000000" stroke="none" 
	d="
M113.836914,239.363937 
	C116.148354,241.354004 116.686455,243.647766 113.443787,245.939392 
	C113.319893,243.947739 113.502144,241.836151 113.836914,239.363937 
z"/>
<path fill="#000000" opacity="1.000000" stroke="none" 
	d="
M93.997253,247.993423 
	C92.786659,248.712738 91.414803,249.269089 90.389992,250.205307 
	C83.466507,256.530212 73.965034,254.587891 70.062164,245.981644 
	C66.610367,238.370056 70.372971,229.220520 77.771179,227.015213 
	C87.662605,224.066696 97.136757,231.405014 94.770103,243.328369 
	C94.518234,244.597305 94.280594,245.869080 94.003761,247.566864 
	C93.971176,247.994202 93.996552,248.006180 93.997253,247.993423 
z"/>
<path fill="#D9661C" opacity="1.000000" stroke="none" 
	d="
M412.723083,236.905640 
	C417.070618,232.427505 419.974548,231.779907 424.917694,234.944397 
	C425.384155,238.483902 425.741913,241.289383 426.099670,244.094849 
	C426.099670,244.094849 426.012360,244.021957 425.732056,244.000229 
	C425.324249,244.357712 425.196686,244.736923 425.069153,245.116119 
	C425.069122,245.116119 425.041260,245.039597 424.730530,244.990005 
	C424.308990,245.332840 424.198212,245.725250 424.087433,246.117676 
	C424.087433,246.117676 424.014313,246.008865 423.677185,245.821960 
	C415.250153,246.379822 413.435883,244.888092 412.723083,236.905640 
z"/>
<path fill="#9EBCDC" opacity="1.000000" stroke="none" 
	d="
M412.400116,237.100250 
	C413.435883,244.888092 415.250153,246.379822 423.716156,245.877853 
	C420.920105,248.948242 417.030914,248.814972 412.940948,245.509857 
	C410.013458,243.144135 410.155731,240.266922 412.400116,237.100250 
z"/>
<path fill="#9EBCDC" opacity="1.000000" stroke="none" 
	d="
M426.451538,243.936783 
	C425.741913,241.289383 425.384155,238.483902 425.146729,235.273819 
	C429.601837,237.179840 428.242981,240.472321 426.451538,243.936783 
z"/>
<path fill="#9EBCDC" opacity="1.000000" stroke="none" 
	d="
M425.328766,245.042526 
	C425.196686,244.736923 425.324249,244.357712 425.784088,244.023193 
	C425.940369,244.368225 425.764374,244.668564 425.328766,245.042526 
z"/>
<path fill="#9EBCDC" opacity="1.000000" stroke="none" 
	d="
M424.348694,246.050262 
	C424.198212,245.725250 424.308990,245.332840 424.767456,245.007202 
	C424.946716,245.376953 424.778320,245.679901 424.348694,246.050262 
z"/>
<path fill="#3D6CA2" opacity="1.000000" stroke="none" 
	d="
M193.355728,255.024185 
	C192.521667,255.066330 192.082016,255.065903 191.310577,254.854004 
	C190.978806,254.642532 190.973450,254.207169 190.973450,254.207169 
	C193.725769,253.141556 196.478073,252.075943 199.594528,250.935059 
	C199.967834,251.637497 199.976990,252.415192 199.977325,253.580734 
	C197.895721,254.306259 195.822922,254.643936 193.355728,255.024185 
z"/>
<path fill="#3371B6" opacity="1.000000" stroke="none" 
	d="
M190.606918,254.146835 
	C190.973450,254.207169 190.978806,254.642532 190.980545,254.860992 
	C190.139999,255.207596 189.297729,255.335770 188.240509,255.284576 
	C188.025558,255.105225 188.025925,254.672363 188.025269,254.455933 
	C188.763199,254.188507 189.501785,254.137497 190.606918,254.146835 
z"/>
<path fill="#000000" opacity="1.000000" stroke="none" 
	d="
M301.838440,232.597916 
	C295.110474,232.950424 288.238525,233.030029 281.367218,232.993378 
	C280.564880,232.989105 279.765930,232.343002 278.898926,231.567932 
	C284.092590,222.102493 297.836548,223.521194 301.838440,232.597916 
z"/>
<path fill="#3371B6" opacity="1.000000" stroke="none" 
	d="
M119.683006,235.086166 
	C119.964882,235.758957 119.958305,236.519714 119.911331,237.659546 
	C119.712143,237.083786 119.553345,236.128967 119.683006,235.086166 
z"/>
</svg>